<svg xmlns="http://www.w3.org/2000/svg" viewBox="0 0 189.26 135.12"><defs><style>.cls-1{fill:#5c6161;}</style></defs><g id="Layer_2" data-name="Layer 2"><g id="Layer_1-2" data-name="Layer 1"><path class="cls-1" d="M138.76,85a10.7,10.7,0,0,1-.48-2.44,30.3,30.3,0,0,0,0-3.81c-.16-1.07-.52-2.78-1.16-3.33s-1.25,1.23-1.39,2c-.36,1.94-.89,3.57-1.3,5.5-.16.78-.65,1.07-.8,2.21a46.22,46.22,0,0,1-.91,7.58c-.17,1.09-.38,2.19-.66,3.27-.5,1.92-.93,3.12-1.48,5-.27.93-1.11,3-.87,3.92-.06,4.38,0,6.9-.31,10.52s-1.05,7.26-1.65,10.88a12.77,12.77,0,0,0-.51,2.77c0,.22-.28,4.7-.27,5.06,0,1.57-1.65.39-3,.44a10,10,0,0,1-3.66.36c-4.78.12-9.57.18-14.35.22-.3,0-.61-.41-.89-.67-.09-.08-.08-.26-.11-.4-.37-2.12-2.12-3.69-2.38-5.9s-.4-4.34-.79-6.48-.7-4.57-2-6.57a6.47,6.47,0,0,1-1-4,20.36,20.36,0,0,0-1-6.66C95.7,96.7,94.59,88.8,93.11,81a19,19,0,0,0-1-3.28C90.49,74,89.78,70,88.8,66.17A102.54,102.54,0,0,1,86.53,54.8c-.52-3.75-1.93-7.36-3-11-.12-.4-.33-.78-.42-1.2-.16-.74.62-1.87,1.36-1.81,3.64.33,6.07-.25,9.89-.2a5.75,5.75,0,0,0,2.67,0,9.24,9.24,0,0,1,3.6-.54c1.57,0,1.61.15,2,2,.64,2.89,1.3,5.78,2.06,8.64a131,131,0,0,1,3,14.83c.27,2,.57,3.89,1,5.81s.94,4.12,1.44,6.17c.86,3.55,1.79,7.1,2.6,10.67.62,2.72,1.08,5.49,1.67,8.22a13.39,13.39,0,0,0,.82,2.38.91.91,0,0,0,.67.42.75.75,0,0,0,.6-.38c.93-4.32,1.8-8.66,2.76-13,.46-2.08,1.07-4.13,1.7-6.17A24.55,24.55,0,0,0,122,74.14c.22-3.23.69-6.44,1-9.66a12.64,12.64,0,0,1,1.6-5.13c.34-.63,0-.86.08-1.51l.07.1c1.35-4,2.85-7.94,3.12-12.2a1.48,1.48,0,0,1,0-.42c0-.18.1-.37.15-.58a5.22,5.22,0,0,1,5.09-4.09h.11c2.83,0,5.65-.26,8.47-.1,2.27.14,3.84-.35,4.07,3.63.42,1.91.32,4,1.62,5.63a2.06,2.06,0,0,1,.2,1.23,19.76,19.76,0,0,0,1,5.8c.9,3.52,1.59,7.1,2.35,10.66a29.13,29.13,0,0,1,.9,6.08,9.15,9.15,0,0,1,.08.94c0,.32.13,1,.24,1,.58,1.84.94,3.16,1.37,4.48a15.43,15.43,0,0,1,1.12,4.48c0,2.33.84,4.41,1.42,6.58a12,12,0,0,1,.78,4.09,8.73,8.73,0,0,0,.57,2.89c.09.35.45.62.69.92.29-.24.77-.43.85-.73.37-1.36.61-2.75,1-4.12.4-1.64.92-3.26,1.29-4.91.28-1.22.42-2.48.58-3.73.3-2.23.45-4.48.89-6.68.72-3.59,2.05-7.11,2.33-10.72a27.28,27.28,0,0,1,2.1-7.59c1.07-2.9,1.89-5.89,2.81-8.84-.58-1.84.35-3.59.33-5.41a7.73,7.73,0,0,1,1.54-4.85c.11-.18.5-.23.77-.27,4.17-.7,9.78-.45,14-.45,2.1,0,3.07,1.31,2.66,3.34-.69,3.43-1.43,6.5-2,10-.53,3.24-1.93,6.34-3,9.47a20.72,20.72,0,0,0-1,4.6,36,36,0,0,1-1.5,7.81C180.27,79.58,180,83.51,179,87.3c-.27,1.09-.08,2.41-.64,3.28-2,3.13-1.62,6.78-2.5,10.14a24.93,24.93,0,0,0-1,4c-.24,1.4-.7,6.31-2.45,6.62a1.61,1.61,0,0,0-.12-.33s-.16,0-.24,0l.45.27c-1.17,2.27-.41,5-1.83,7.21-.81,4.4-1.61,8.79-2.45,13.18a2.19,2.19,0,0,1-.79,1.35,9.53,9.53,0,0,1-5.52,1.87c-3.78-.18-7.57-.26-11.34-.61a3.75,3.75,0,0,1-3.43-3.23c-.61-2.89-1.28-5.76-1.92-8.64-.52-2.33-1.18-4.63-1.51-7-.46-3.33-.67-6.7-.86-10.06a40,40,0,0,0-2.26-10.51,42.65,42.65,0,0,1-1.7-8.35m-32.82.39.19-.32-.27,0Zm17.69,34-.21-.32c-.09.09-.27.23-.26.25a2.64,2.64,0,0,0,.34.41ZM101.92,54l.31-.12c-.09-.07-.17-.18-.27-.19s-.2.08-.3.12Zm7.89,69.34.18-.29-.26,0Zm20.81-67.27L131,56l-.36-.15ZM88.48,60l.13.35.15-.34Z"/><path class="cls-1" d="M7.55,93.62a11.26,11.26,0,0,0-2.72-.11c-.53-.05-.58-3.69-.45-4,.83-1.82,0-2.11.3-4a9.76,9.76,0,0,0,0-3.77,1.63,1.63,0,0,1,0-.76c.68-2.51.37-5,.09-7.52-.24-2.12,0-4.29-.13-6.43s.43-4.27.07-6.43a9.91,9.91,0,0,1,.2-2.28,5.81,5.81,0,0,0,.11-1.89c-1-4-.15-8.13-.19-12.18,0-2.26-.31-4.55.35-6.82.26-.88-.3-2-.28-3A24.6,24.6,0,0,0,4.54,30c-.27-1.66.75-2.45.47-3.77A10.35,10.35,0,0,1,4.44,23c.09-2.88.07-5.76.11-8.64a.33.33,0,0,1,0-.15c.25-.58,0-1.11.28-1.68a5.62,5.62,0,0,0,.28-3.85c-.23-.79.24-1.67.34-2.53C5.61,5,5.3,3.61,5.5,2.48c.3-1.63,1.29-1.94,3-2,2.68,0,5.36.05,8,.06s5.62,0,8.42,0a12.7,12.7,0,0,1,3.76.51,6.61,6.61,0,0,0,2.61.36c1.83-.12,3.61.5,5.53,0,1.52-.36,3.27.09,4.89.32,2.26.32,4.5.76,6.74,1.16.81.15,1.46.44,1.46,1.44,0,.17.3.5.4.48,2.1-.44,3.19,1.27,4.55,2.23,2,1.38,4.11,2.55,5.56,4.54a9.29,9.29,0,0,1,1.22,1.92c1,2.6,2,5.22,3,7.86A8.08,8.08,0,0,1,65,23.72c0,.63-.24,1.35,0,1.89,1.2,3-.4,5.73-.8,8.56a4.77,4.77,0,0,1-1.22,2.31c-1.67,1.89-3.18,3.94-5.61,5-1.62.71-2.71,2.34-4.52,2.78-.08,0-.16.5-.08.58,1.15,1,3,1.56,4.2,2.46,1.74,1.27,3,2.8,4.59,4.19a20.52,20.52,0,0,1,3.16,3.76,34.32,34.32,0,0,1,1.92,3.28,3.53,3.53,0,0,1,.45,1c0,.08,1.52,2.59.86,4.44-.6,1.65.56,3,.41,4.8a21.82,21.82,0,0,0-.37,4.39,6.77,6.77,0,0,1-.59,3.88C65,82.94,60.65,86.84,55.4,89.94c-2.45,1.45-5.27,1.82-8,2.46-1.24.29-2.51.44-3.74.76-3.75,1-7.61.58-11.41,1a26.2,26.2,0,0,1-7.91-.45,10.12,10.12,0,0,0-3.38,0A71.72,71.72,0,0,1,8,93.83,1.68,1.68,0,0,1,6.38,92.3c.36,0,1,.13,1.31.11.11,0,.21-.11.32-.17-.16-.12-.39-.38-.46-.35C7.25,92.05,7.82,93.41,7.55,93.62Zm3.88-77.89a2.66,2.66,0,0,0,0,.69,1.44,1.44,0,0,0,.29.45c.06-.07.17-.15.18-.23a.54.54,0,0,0-.08-.33c-.14-.18-.32-.34-.48-.51a4.68,4.68,0,0,0-.15-1.07c-.06-.14-.55-.28-.59-.22-.21.25-.51.66-.43.86C10.39,15.91,10.91,15.94,11.43,15.73ZM33,55.56v-.09H26.11c-.9,0-2.2,1-2.2,1.74,0,1.27-.37,2.13-.1,3.36s-.53,2.68-.39,4.05c.26,2.53.13,5.1.19,7.65a6.47,6.47,0,0,0,.25,2.26c.27.67.5.72,1.08,1.2s1.83.26,2.42.15a4.55,4.55,0,0,1,2.32,0c1.34.33,2.51-.24,3.91-.17,1.14.06,2.3,0,3.43.19a30.69,30.69,0,0,0,5.35-.07,7.33,7.33,0,0,0,3-1.67c1.88-1.52,1.39-1.85,3.07-3.58,1.16-1.21,1.37-3.27,1.49-5a9.31,9.31,0,0,0-2.77-7.28c-1.83-1.93-2.13-2.25-6.88-2.75a3.29,3.29,0,0,1-1.13,0ZM33,39c2.21-.13,3.6-.23,5-.29a8.15,8.15,0,0,0,5.33-3c1.32-1.7,2.36-1.38,3.22-4.15,1.46-1.85,2-4.17.32-6.25a4.28,4.28,0,0,0-2.09-3.42,4.33,4.33,0,0,1-1-1.13,4,4,0,0,0-4.3-1.63A55.54,55.54,0,0,0,27.07,19a2.66,2.66,0,0,0-1.5,0c-.52.23-1.21.71-1.29,1.18a16.45,16.45,0,0,0-.44,5.24,44.17,44.17,0,0,1,.1,11.37c-.11,1.26.32,1.92,1.63,2C28.32,38.82,31.07,39.51,33,39Zm29.91-5.47a8.79,8.79,0,0,0-1,0c-.07,0-.14.19-.2.3l.84.45ZM7.48,30.65c-.12-.24-.22-.44-.33-.64l-.59.32.46.73Zm2.77-8.92-.68.68a3.78,3.78,0,0,0,1,.29c.17,0,.36-.24.55-.37Zm3.64,56.71-.11.32.43,0a.79.79,0,0,0-.08-.32S14,78.45,13.89,78.44Zm3.86-52.3a4.66,4.66,0,0,0-.61-.26c-.05,0-.23.19-.22.21s.24.4.34.39S17.59,26.26,17.75,26.14ZM31.09,10.38l-.16-.26-.23.16.27.37Zm2-5.65-.42-.12c0,.07,0,.2.07.2A2.45,2.45,0,0,0,33.07,4.73ZM14,48.45c-.08-.07-.16-.17-.25-.18s-.19.07-.28.11c.08.06.15.16.24.17S13.89,48.49,14,48.45Zm41.42-39,.14-.2-.23,0Z"/><path class="cls-1" d="M0,129.86c-.1-5.14-.29-5.49,5.25-5.47,2.8,0,5.6-.46,8.42-.09a5.67,5.67,0,0,0,1.69-.09c7.16-1.23,14.36-.58,21.55-.48,2.11,0,4.21,0,6.32,0,.56,0,1.13,0,1.69,0,8.47.11,16.93-.09,25.39,0,1.82,0,2.86.64,3,2.28a57.21,57.21,0,0,1-.06,7.17,1.54,1.54,0,0,1-1.12,1c-2.25,0-4.42,1.14-6.7.48-4.64.91-9.21.13-13.79-.53a4.46,4.46,0,0,0-.8-.09c-9.45.76-18.92.29-28.37.38-4.66,0-9.32,0-14,0a6,6,0,0,0-2.49.3c-1.42.67-2.79.2-4.17.12a1.89,1.89,0,0,1-1.8-2c0-.28,0-.56,0-.84C0,131.27,0,130.56,0,129.86Z"/><path class="cls-1" d="M99.35,6.39c-.11-5.14-.3-5.49,5.24-5.47,2.8,0,5.6-.46,8.42-.09A5.67,5.67,0,0,0,114.7.74c7.16-1.23,14.36-.58,21.55-.48,2.11,0,4.21,0,6.32,0,.57,0,1.13,0,1.7,0,8.46.11,16.92-.09,25.39,0,1.82,0,2.85.64,3,2.28a55.37,55.37,0,0,1-.06,7.17,1.54,1.54,0,0,1-1.12,1c-2.25,0-4.42,1.14-6.7.48-4.64.91-9.21.13-13.79-.53a3.7,3.7,0,0,0-.8-.09c-9.45.76-18.92.29-28.37.38-4.66,0-9.32,0-14,0a6,6,0,0,0-2.49.3c-1.42.67-2.79.2-4.17.12a1.89,1.89,0,0,1-1.8-2c0-.28,0-.56,0-.84Z"/></g></g></svg>