<svg xmlns="http://www.w3.org/2000/svg" viewBox="0 0 35.44 204.11"><defs><style>.cls-1{fill:#f7f5dd;}</style></defs><g id="Layer_2" data-name="Layer 2"><g id="Layer_1-2" data-name="Layer 1"><path class="cls-1" d="M0,35.34V0H8l9.68,19.85L27.35,0h8.09V35.34H28.79V10.19L20.1,28.1H15.38l-8.78-18V35.34Z"/><path class="cls-1" d="M9.46,76.19v9.73H33V92H2.41V55.1H33l-.41,6.08H9.46v9H29.08v6Z"/><path class="cls-1" d="M3.05,146.22v-36.9H10.3l15.19,25v-25h6.89v36.9h-7.2l-15.24-25v25Z"/><path class="cls-1" d="M3.31,189.11V166.6h7v22.51c0,6,2.17,8.87,7.35,8.87S25,195.14,25,189.11V166.6h7v22.51c0,10.19-4.25,15-14.42,15S3.31,199.3,3.31,189.11Z"/></g></g></svg>