<?xml version="1.0" encoding="utf-8"?>
<!-- Generator: Adobe Illustrator 24.1.0, SVG Export Plug-In . SVG Version: 6.00 Build 0)  -->
<svg version="1.1" id="Layer_1" xmlns="http://www.w3.org/2000/svg" xmlns:xlink="http://www.w3.org/1999/xlink" x="0px" y="0px"
	 viewBox="0 0 253 300" style="enable-background:new 0 0 253 300;" xml:space="preserve" preserveAspectRatio="none">
<style type="text/css">
	.st0{fill:#84ACAF;}
	.st1{fill:#84ADAF;}
</style>
<g id="Layer_1-2">
	<path class="st0" d="M90.7,4.8L90.7,4.8L90.7,4.8z"/>
	<path class="st1" d="M251.1,238.6c-0.8-0.3-1.6-0.7-2.2-1.2c-1.8-1.4-2.6-3.7-2.1-5.9c0.4-2.3,2-4.1,4.2-4.8c1-0.3,1-0.3,1-1.4
		c0-2,0-4,0-6c0-1.8,0.2-1.5-1.4-2.1c-3.2-1.3-4.7-4.9-3.4-8.1c0.7-1.8,2.2-3.1,4-3.6c0.6-0.1,0.9-0.7,0.9-1.2c0-2.3,0-4.6,0-6.9
		c0-0.9,0-0.9-1-1.1c-3.3-0.7-5.4-4-4.7-7.3c0.4-2,1.8-3.6,3.7-4.4c0.4-0.2,0.8-0.3,1.3-0.4c0.4,0,0.8-0.4,0.8-0.9c0,0,0,0,0,0
		c0-2.4,0-4.8,0-7.2c0-0.5-0.2-0.8-0.7-0.8c-1.6-0.2-3.1-1-4-2.4c-2.1-2.7-1.6-6.5,1.1-8.6c0.8-0.6,1.6-1,2.6-1.2
		c0.9-0.2,0.9-0.2,0.9-1.1c0-2.1,0-4.2,0-6.2c0-0.6-0.2-1-0.8-1.1c-0.3-0.1-0.6-0.1-0.9-0.2c-2.8-1-4.4-3.9-4-6.8
		c0.4-2.5,2.3-4.5,4.8-5c0.6-0.1,1-0.3,1-1c0-2.4,0-4.8,0-7.2c0-0.6-0.2-0.8-0.8-0.9c-1-0.2-1.9-0.6-2.7-1.3c-2.4-2-3-5.4-1.4-8.1
		c0.9-1.4,2.3-2.5,4-2.8c0.9-0.3,1-0.3,1-1.3c0-1.8,0-3.7,0-5.5c0-1.5,0-1.5-1.4-1.8c-2.2-0.5-3.9-2.2-4.5-4.3
		c-0.3-1.3-0.3-2.6-0.1-3.9c0-0.3,0.4-0.5,0.6-0.8c1-1.8,2.8-3,4.8-3.1c0.4,0,0.7-0.3,0.7-0.7c0-0.1,0-0.1,0-0.2c0-2.3,0-4.7,0-7
		c0-0.7-0.3-0.8-0.9-1c-1-0.2-2-0.6-2.9-1.2c-2.1-1.5-2.9-4.2-2.1-6.7c0.6-2.4,2.6-4.1,5-4.4c0.9-0.1,0.9-0.3,0.9-1.1
		c0-2.2,0-4.5,0-6.7c0-0.8,0-0.8-0.9-1c-0.8-0.1-1.7-0.3-2.4-0.7c-2.4-1.3-3.8-4-3.3-6.7c0.4-2.7,2.6-4.8,5.3-5.2
		c0.2,0,0.4,0,0.6-0.1c0.4,0,0.7-0.2,0.7-0.7c0-2.2,0-4.3,0-6.5c0-0.6-0.5-1.2-1.1-1.3c-1.1-0.4-2.2-0.9-3.3-1.3
		c-0.2-0.3-0.5-0.5-0.7-0.8c-2.2-2.6-1.8-6.6,0.8-8.8c0.7-0.6,1.6-1,2.5-1.3c1.2-0.3,1.4-0.6,1.3-1.8c-0.1-1.9-0.2-3.8-0.2-5.7
		c0-0.5-0.3-1-0.9-1.1c-1.9-0.6-3.4-2.2-4-4.2c-0.9-2.6,0.8-6.6,3.5-7.4c1-0.3,1.5-0.7,1.4-1.8c0-0.3,0.2-0.6,0.3-0.9
		c0.2-0.3,0.3-0.6,0.3-1c0-1.5,0-3,0-4.4c0-0.7-0.4-1.4-1.1-1.6c-0.7-0.2-1.4-0.4-2.1-0.5c-0.1,0-0.2,0-0.3-0.1
		c-0.6-0.8-1.3-1.6-1.9-2.5c-0.1-0.1-0.2-0.2-0.3-0.3c0,0.2,0,0.3,0,0.5c0.2,0.6-0.5,0.7-0.7,1c-0.2-0.2-0.4-0.4-0.5-0.6
		c-0.1-0.2-0.2-0.4-0.3-0.5c-0.3-0.5-0.6-0.5-1-0.2c-0.2,0.2-0.4,0.5-0.7,0.7c-0.3,0.1-0.6,0.2-0.9,0.2c-0.3,0-0.6-0.1-0.9-0.2
		c0.1,0.3,0.1,0.6,0.2,0.9c0,0.1,0,0.1,0,0.2c-1.2,0-2-0.9-3-1.6c-0.7-0.5-0.7-0.6-1,0.3l-0.2,0.7c-0.1,0.4-0.4,0.5-0.6,0.1
		c-0.4-0.7-0.7-0.6-1.2-0.1c-0.3,0.3-0.6,0.6-1,0.9c-0.6,0.5-1.3,1-2,1.4c-0.6,0.2-1.3,0.3-1.9,0.3c-2.4,0.2-4.7-1-5.9-3.1
		c-0.2-0.3-0.3-0.6-0.5-1c-0.2-0.3-1.5-0.8-1.7-0.5c-0.4,0.5-0.7,0.3-1,0.1c-0.6-0.4-1.3-0.6-1.8,0.2c-0.1,0.1-0.3,0.2-0.4,0.2
		c-1-0.3-2.1,0.3-3-0.7c-0.4-0.4-0.7-0.3-1,0.3c-0.3,0.6-0.7,1.3-1,1.9c-0.1,0.3-0.4,0.6-0.7,0.8c-0.5,0.3-1.1,0.4-1.7,0.6
		c-1,0.5-2,0.7-3.1,0.6c-2.2-0.3-4.1-1.7-4.9-3.7c-0.2-0.4-0.4-0.6-0.9-0.5s-0.8,0-0.8,0.7c0,0.2-0.1,0.3-0.2,0.4
		c-0.4,0.5-0.7,0.5-1.1-0.1s-0.7-0.8-1.6-0.6c-0.2,0-0.4,0-0.5-0.1c-0.6-0.5-1.3-0.3-2-0.3c-0.5,0-0.6,0.2-0.5,0.7
		c0,0.5,0,1-0.1,1.5c0,0.1-0.1,0.3-0.2,0.4c-0.1-0.1-0.2-0.2-0.3-0.3c-0.1-0.4-0.3-0.5-0.5-0.1s-0.5,0.6-0.9,0.2
		c-0.5-0.4-0.9-0.1-1.2,0.2c-0.2,0.2-0.4,0.5-0.6,0.8c-0.5,0.7-0.9,1.4-2.1,1c-0.6-0.1-1.1,0.1-1.6,0.4c-0.8,0.5-1.5,0-2.2,0
		c-0.5,0-0.5-0.5-0.4-0.9c0,0-0.1-0.1-0.2-0.1c-1.5-0.8-2.6-2.1-3.3-3.6c-0.1-0.2-0.2-0.5-0.4-0.6c-0.4-0.1-0.9-0.2-1.3-0.2
		c0.1,0.3,0.2,0.5,0.3,0.8c0,0.1,0.2,0.2,0.2,0.3c0.1,0.5,0,1-0.4,1.3c-0.4,0.2-0.5-0.3-0.7-0.5c-0.4-0.5-0.8-1.1-1.2-1.6
		c0,0-0.2,0-0.3,0.1c-0.1,0.1-0.2,0.3-0.3,0.4c-0.5,0.6-0.8,0.6-1.2-0.1c-0.1-0.3,0-0.9-0.7-0.4c-0.3,0.2-0.8-0.3-1.1,0.2
		c-0.2,0.3-0.4,0.5-0.7,0.8c-0.2-0.3-0.4-0.5-0.7-0.8c-0.1-0.1-0.2-0.1-0.3-0.1c-0.1,0-0.1,0.2-0.2,0.3c0,0.3,0,0.7-0.1,1
		c0,0.1-0.1,0.2-0.2,0.3c-0.1-0.1-0.1-0.2-0.2-0.4c0-0.1,0-0.1,0-0.1s0-0.2,0-0.3c-0.1,0.1-0.2,0.2-0.2,0.3
		c-0.1,0.2-0.2,0.5-0.1,0.7c0.2,0.7-0.2,0.9-0.7,1.3c-0.4,0.3-1.2,0.5-1.2,1.3c0,0.1-0.2,0.3-0.3,0.3c-0.7,0.2-1.4,0.8-2.2,0.4
		c-0.2-0.1-0.5,0-0.7,0c-1.1-0.2-2.1-0.4-3.2-0.8c-1.2-0.6-2.2-1.5-2.9-2.7c-0.2-0.4-0.4-0.6-0.8-0.8c-0.5-0.2-1-0.3-1.5-0.3
		c-0.7-0.1-0.2,0.2-0.1,0.4c0.1,0.2-0.2,0.3-0.3,0.3c-0.4,0-0.8-0.2-1.1-0.4c-0.5-0.4-1.1-0.6-1.8-0.5c-0.2,0-0.5,0-0.7,0
		c-0.9-0.2-1.7-0.3-1.9,0.9c-0.7,0.3-0.9,1-1.3,1.6c-1.2,2-3.4,3.2-5.7,3c-2.5-0.1-4.6-1.7-5.4-4.1c-0.1-0.6-0.7-1-1.2-0.9
		c-0.6,0-1.2-0.1-1.8-0.2c-0.3,0-0.6-0.1-0.8,0.1c-0.2,0.3-0.4,0.6-0.4,0.9c-0.2-0.3-0.4-0.7-0.6-0.8c-0.4-0.2-1.1-0.4-1.4-0.2
		c-0.4,0.4-0.7,0.1-1,0c-0.9-0.2-1.2-0.1-1.5,0.7c-0.3,1-1,1.8-1.9,2.3c-2.5,2.2-6.3,2-8.5-0.4c-0.1-0.1-0.2-0.2-0.3-0.3
		c-0.4-0.6-0.8-1.3-1.2-2c-0.3-0.6-0.8-0.7-1.3-0.3c-0.2,0.3-0.4,0.6-0.6,0.9c-0.2,0.3-0.4,0.5-0.7,0.8c-0.1,0.1-0.3,0-0.4-0.1
		c0-0.1,0-0.2,0.1-0.3c0.1-0.2,0.2-0.3,0.4-0.4c-0.2,0-0.5-0.1-0.7,0c-0.5,0.3-1.2,0.2-1.5-0.4c0,0,0-0.1-0.1-0.1
		c-0.1-0.2-0.3-0.4-0.6-0.4c-0.2,0-0.7,0.2-0.7,0.3c0,0.8-0.6,1.2-0.9,1.8c-0.1,0.2-0.3,0.5-0.5,0.7c-0.2-0.2-0.3-0.4-0.4-0.7
		c-0.1-0.5-0.4-0.8-1-0.5c-0.1,0-0.2,0-0.2,0c-0.9-0.5-1.1,0-1.3,0.7c-0.7,0,0.2,1.4-0.9,1.1c-0.1,0.5-0.3,0.7-0.9,0.7
		c-0.3,0-0.7,0.4-1.1,0.3c-0.2,0-0.5,0.1-0.8,0.2c-0.2,0.1-0.4,0.2-0.7,0.2c-0.5,0-1-0.2-1.4-0.2c-1.6-0.2-3-1-4-2.2
		c-0.7-1-1.3-2.1-2-3.1c-0.1-0.1-0.2-0.2-0.3-0.3c0,0.1-0.1,0.2-0.1,0.3c-0.4,0.7-1.2,1-2,0.8c-0.5-0.2-0.9-0.6-1.2-1
		c-0.3-0.5-0.5-0.5-0.8-0.3c-0.7,0.3-1.1,1-1.1,1.8c0,0.4-0.4,0.5-0.7,0.2c-0.1-0.1-0.2-0.3-0.3-0.4c-0.2-0.2-0.4-0.5-0.5-0.7
		c-0.1,0.3-0.3,0.6-0.4,0.9c-0.1,0.3-0.2,0.6-0.2,0.8l0,0c0.1,0.2,0.3,0.4,0.2,0.5c-0.2,0.3-0.4,0.5-0.6,0.7
		c-0.1-0.1-0.1-0.2-0.1-0.3c0-0.1,0-0.2,0-0.3l-2.4,2.3l0,0c-0.6,0.2-1.2,0.4-1.8,0.5c-2.6,0.5-5.2-0.7-6.5-3
		c-0.4-0.8-0.6-1.6-0.9-2.4c-0.2-0.6-0.4-0.7-1-0.5c-0.2,0.1-0.4,0.2-0.5,0.3c-0.2,0.3-0.6,0.4-0.9,0.2c-0.1-0.1-0.2-0.1-0.2-0.2
		c-0.4-0.4-0.6-0.4-0.6,0.2s-0.4,0.6-0.8,0.3s-0.7-0.5-1.1-0.7c-0.1,0-0.2,0-0.3,0c0,0.1,0.1,0.2,0.2,0.3c0.5,0.4,0.8,1.1,0.5,1.7
		c0,0.4,0,0.9,0,1.3c0,0.2,0,0.4,0,0.6l-0.6-0.1c-0.5-0.1-0.5-0.5-0.4-0.9c0.1-1,0.1-1.1-1-1c-0.3,0-0.5-0.1-0.7-0.3
		c-0.2-0.2-0.5-0.3-0.7-0.2c-0.2,0.1-0.2,0.4-0.3,0.7s0.2,0.6-0.2,0.6s-0.8,0.5-0.9,0.9c-0.1,0.5-0.2,0.7-0.7,0.7
		c-0.2,0-0.5,0.2-0.7,0.4c-1.1,0.8-2.4,1.2-3.7,1.1c-1.9-0.1-3.6-1.1-4.8-2.6c-0.8-1.2-1.3-2.5-1.3-4c0-0.2,0.1-0.4-0.4-0.4
		c-1.2,0-2.3-0.2-3.5-0.4c-0.3,0-0.6,0-0.8,0C52.5,1,52.1,1.2,52,2.1c-0.1,0.6-0.2,0.8-0.8,0.6c-0.4-0.2-0.5,0.2-0.6,0.5
		c-0.1,0.3-0.2,0.7-0.6,0.3c-0.3,0.4-1.1,0.1-1.2,0.6c-0.1,0.8-0.7,1.3-1.1,1.8c-2,2.6-6.7,2.7-9,0.2c-0.9-0.9-1.5-2.1-1.7-3.4
		c-0.1-0.5-0.4-0.8-0.8-0.6c-0.6,0.1-1.2,0.1-1.8,0c-1.3,0-2.6,0-4-0.1c-0.3,0-0.6,0-0.8,0.1c-0.1,0-0.2,0.3-0.2,0.5
		c0,0.1,0.3,0.5,0.2,0.7c-0.2,0.5-0.4-0.2-0.7,0c-0.1,0.1-0.2,0.2-0.3,0.4c-0.1,0.3-0.1,0.6-0.2,0.8c-0.3,1-1,1.9-1.8,2.5
		c-0.2,0.1-0.3,0.3-0.4,0.5c-0.1,0.4-0.5,0.7-1,0.6c0,0-0.1,0-0.1,0c-0.5-0.2-0.9,0-1.3,0.1c-2.8,0.8-5.7-0.5-7.1-3
		c-0.3-0.5-0.5-1.1-0.7-1.6c-0.2-0.6-0.7-0.6-1.2-0.6s-0.6,0.2-0.7,0.6c0,0.5-0.3,0.3-0.4,0.1S13.3,2.9,13,3.3c-0.1,0-0.2,0-0.3,0
		c-0.6-0.6-1.2,0-1.8-0.1c0,0.1,0,0.2,0,0.3c0,0.1,0.3,0.1,0.3,0.2c-0.1,0.4-0.3,0.7-0.4,1.1l-0.6-0.7C10.1,4,10.1,4,10,3.9
		C9.5,3.5,8.9,3.4,8.3,3.5C7.8,3.9,7.8,4.4,8,5c0.1,0.5,0.3,1.1,0.5,1.6c0.2,0.5,0.2,1,0,1.5C8.3,8.4,8.4,8.7,8.5,9
		c0.1,0.3,0.1,0.7,0.2,1C8.3,9.9,8,9.7,7.6,9.5c-0.1,0-0.1-0.2-0.2-0.3C7.2,8.6,7,8.6,6.7,9.2C6.6,9.3,6.5,9.4,6.4,9.5
		C6.4,9.4,6.3,9.2,6.2,9.1c0-0.1,0-0.2,0-0.3C6.1,8.5,6.1,8.2,6.1,7.9C5.7,8.1,5.4,8.2,5,8.3C4.6,8.5,4.8,8.9,4.9,9.2
		c0.6,1,0.5,2.2-0.1,3.2c-0.1,0.3-0.1,0.6,0,0.9c0.3,0.6,0.2,1-0.5,1.1c-0.4,0.1-0.4,0.3-0.1,0.4c0.5,0.3,0.5,0.6,0.5,1.1
		c-0.1,1,0.4,2,1.2,2.7c0.5,0.3,0.9,0.8,1.2,1.3c0.3,1.1,0.6,2.3,0.8,3.5c0,0.2,0.1,0.5,0,0.6c-0.6,0.4-0.6,0.9-0.5,1.5
		c0,0.1,0,0.3-0.1,0.3c-0.9,0.2-0.8,1.1-1.2,1.7c-0.2,0.3-0.6,0.4-0.9,0.6s0.1,0.9-0.5,1c-0.1-0.1-0.3-0.4-0.4-0.4
		C4,29,3.6,29.2,3.2,29.5c-0.1,0.1-0.1,0.3,0,0.4C3.4,30,3.6,30,3.7,30.2c0.3,0.3,0.5,1,0.2,1.3c-0.3,0.3-0.5,0-0.8,0l-0.2-0.1
		l-0.3-0.4c-0.3,0.3-0.6,0.5-0.5,1c0.1,0.5,0.1,1.2,0.1,1.8c0.4,0.1,1,0.3,1.1,0.1c0.4-0.4,0.5-0.1,0.6,0.1C3.9,34.2,4,34.4,4,34.6
		c-0.2,0.7,0.2,1.2,0.6,1.8c0.3,0.3,0.4,0.8,0.2,1.2c-0.2,0.4,0.1,0.7,0.4,0.9l0.3,0.4c0.6,0.8,1.3,1.6,1.9,2.3
		c0.8,1.2,1.1,2.7,0.7,4c-0.4,1.9-1.6,3.5-3.2,4.4c-0.6,0.4-1.3,0.7-2,0.9c-0.7,0.1-0.7,0.4-0.6,0.9c0.3,1.1,0.3,2.3-0.3,3.3
		c-0.1,0.2-0.1,0.4-0.1,0.6c0.4,0.7,0.2,1.6-0.5,2.1c-0.1,0.1-0.1,0.3,0,0.4c0.7,0.3,1.3,0.6,2,1c0.4,0.2,0.8,0.3,1.1,0.5
		c3.1,1.5,4.4,5.3,2.9,8.4C7,68.3,6.5,69,5.9,69.5c-1.2,1-2.7,1.6-4.2,1.6c-0.1,0-0.2,0.1-0.3,0.1c0.1,0.1,0.2,0.1,0.3,0.1
		c1,0.4,1.4,1,1,1.6c-0.3,0.6-0.7,1.1-1.1,1.6L1.4,73c0-0.1,0-0.2-0.1-0.3c0,0.1,0,0.2,0,0.4c0,0.6,0,1.2,0,1.8
		c0,0.2,0.1,0.4,0.2,0.5c0.5,0.3,0.7,1,0.4,1.6c-0.4,0.8-0.3,1.7,0.3,2.4l0.3,0.1l-0.3,0.1c0.7,0.2,1.4,0.4,2.1,0.7
		c0.5,0.1,0.9,0.4,1.3,0.6c1.4,1.2,2.4,2.8,3,4.7c0.2,0.5,0.1,1.2-0.2,1.6c-0.2,0.5-0.4,1-0.5,1.5c-0.3,1.2-1.1,2.2-2.1,2.7
		c-0.6,0.3-1.3,0.6-2,0.7c-1.1,0-2,0.9-2.1,2c-0.1,0.3-0.5,0.4-0.2,0.9c0.5,0.8,1.1,1.5,0.5,2.5c0,0,0,0.2,0,0.2
		c0.1,0.7,0.2,1.4,0.3,2c0,0.5,0.4,1,0.9,1c0.6,0.1,1.2,0.3,1.8,0.6c1.3,0.7,2.4,1.7,3.1,3.1c1.3,2.4,0.2,6-2,7.6
		c-1.1,0.8-2.4,1.2-3.8,1.3c-0.9,0-0.9,0.1-0.9,1c0,1.5,0,3,0,4.4c0,1-0.1,1.9,1.1,2.5c0.6,0.4,1.3,0.8,2,1.1c3.2,1.1,5,4.6,3.9,7.9
		c-0.3,0.8-0.7,1.6-1.4,2.3c-0.3,0.3-0.5,0.5-0.8,0.8l0.1,0.4l-0.3-0.3c-1.1,0.6-2.3,1-3.6,1.1c-1,0-1,0.1-1,1c0,2.1,0,4.2,0,6.4
		c0,0.9,0,1,1,1c0.7,0,1.5,0.2,2.2,0.1c1-0.1,1,1,1.7,1.2c0.1,0,0.1,0.1,0.2,0.1c1.7,1.2,2.6,3.3,2.2,5.3c-0.2,2.2-1.6,4.1-3.6,5.2
		c-0.7,0.4-1.6,0.3-1.8,1.4c0,0.1-0.4,0.1-0.7,0.2c0-0.2-0.1-0.3-0.1-0.5c0.1-0.3,0-0.3-0.2-0.4c-0.9-0.1-1.1,0-1.1,1c0,2,0,4,0,6
		c0,0.9-0.1,1.2,1.1,1.2c1.7,0,3.3,0.3,4.4,1.8c0.1,0.2,0.3,0.3,0.4,0.4c0.6,0.6,1.1,1.3,1.2,2.2c0.1,0.5,0.1,1,0.2,1.6
		c0.2,3.1-2.1,5.9-5.1,6.4c-0.6,0.1-1.2,0-1.8,0.1c-0.1,0-0.3,0.2-0.4,0.4c0,0.2,0.1,0.3,0.2,0.4c0.5,0.2,1.1,0.4,1.6,0.6
		c0.5,0.2,0.6,0.7,0.1,1l-0.9,0.8l-0.3,0.3c0-0.1,0-0.3,0-0.4c0-0.2,0-0.4,0-0.6c0.1-0.2,0.1-0.3,0.2-0.5c-0.2,0.1-0.6,0.2-0.7,0.4
		c-0.2,0.2-0.2,0.5-0.2,0.8c0,1.6,0,3.1,0,4.7c0,0.2,0,0.4,0.1,0.6c0,0.1,0.1,0.2,0.2,0.2c0-0.1-0.1-0.3,0-0.3
		c0.1-0.1,0.2-0.4,0.4-0.4s0.6,0.2,0.6,0.3c-0.1,0.8,0.5,0.5,0.8,0.5c0.8-0.1,1.6,0.1,2.3,0.5c0.9,0.6,1.7,1.3,2.4,2.2
		c0.1,0.2,0.5,0.5,0.6,0.4c0.4-0.2,0.4,0.1,0.3,0.3c-0.3,0.5-0.1,0.8,0.3,1.1c0.5,0.3,0.5,0.8,0.3,1.4c-0.2,0.7-0.4,1.5-0.7,2.2
		c-0.2,0.5-0.4,1.1-0.7,1.6c-1.1,1.8-3.1,2.9-5.2,3c-0.3,0-0.7,0-1,0.1c-0.4,0-0.8,0.4-0.8,0.8c0,0,0,0.1,0,0.1c0,1.9,0,3.8,0,5.6
		c0,0.6,0.2,0.8,0.8,0.9c0.6,0,1.1,0.1,1.7,0.2c3.2,0.4,5.8,4,5.2,7.1c-0.3,1.2-0.8,2.3-1.3,3.4c-0.1,0.1-0.1,0.2-0.2,0.3
		c-0.6,0.7-1.8,0.6-2.3,1.5c0,0-0.2,0-0.3,0c-1-0.1-2.1,0-3,0.3c-0.2,0.1-0.4,0.3-0.4,0.6c0,2.3,0,4.6,0,6.9c0,0.3,0.2,0.5,0.4,0.6
		c0.8,0.3,1.7,0.5,2.6,0.6c0.7-0.1,1.3,0.2,1.8,0.7c0.2,0.2,0.5,0.4,0.8,0.6c0.4,0.2,0.8,0.5,1.1,0.7c0.6,0.5,1.2,1,0.9,2
		c-0.1,0.4,0.1,1.3,0.6,1.3c1,0,0.8,0.6,0.8,1.2c0,0.3,0.2,0.6,0.3,0.9c0.1,0.3,0.2,0.6,0.2,0.9c0,0.1-0.2,0.2-0.3,0.4
		c-0.1-0.1-0.3-0.2-0.3-0.3c-0.2-0.6-0.3-1.2-0.5-1.8c-0.1-0.2-0.3-0.3-0.4-0.4c0,0.2-0.1,0.3-0.2,0.5c-0.5,1-0.9,2-1.4,3
		c-0.4,0.9-1.2,1.6-2.1,1.9c-0.6,0.2-1.3,0.6-1.9,0.8c-0.2,0.1-0.5,0.1-0.7,0.1c-0.9,0-0.9,0-1.2,0.9c-0.1,0.2-0.1,0.6-0.3,0.7
		c-0.6,0.2-0.5,0.7-0.4,1c0.1,0.3,0.5,1,0.5,1.4c-0.1,0.5-0.3,1.1-0.5,1.6c-0.3,0.7,0.6,0.8,0.6,1.4s1.1,1.2,1.6,1.2
		c0.6,0,1.2,0.1,1.7,0.3c0.6,0.2,1.2,0.3,1.9,0.5c0.3,0.6,0.6,1.2,1,1.8c0.7,0.9,1.1,2.1,1.2,3.3c0,0.6,0.1,1.3,0.1,2
		c0,0.7,0.1,1.4-0.8,1.6c-0.3,0.1-0.5,0.5-0.8,0.8c-1,1.3-2.5,2.1-4.2,2.3l-1.8,0.2c-0.4,0-0.6,0.2-0.6,0.6c0,1.2,0,2.4,0,3.7
		c0,0.2,0.1,0.4,0.2,0.5c0.3,0.5,0.8,1-0.1,1.4c-0.1,0,0,0.6,0.1,0.9c0.5-0.1,0.3,0.4,0.4,0.5c0.3,0.6,0.9,0.9,1.5,0.7
		c1.2-0.4,2,0.7,3,0.8c0.8,1.1,1.7,2.2,2.5,3.4c0.4,0.5,0.6,1.1,0.6,1.7c-0.2,1.7-0.1,3.5-1.6,4.9c-0.3,0.3-0.6,0.6-0.3,1.1
		c-0.7-0.4-1.6-0.3-2.2,0.3c-0.1,0.1-0.3,0.1-0.5,0.1s-0.3,0.1-0.3,0.2c0.1,0.9-0.3,0.5-0.7,0.3c-0.3-0.2-0.7-0.1-0.9,0.2
		c0,0,0,0,0,0.1c-0.2,0.2-0.3,0.4-0.4,0.6c-0.5,1.6-0.9,3.1,0.2,4.7c0.1,0.2,0.2,0.3,0.2,0.5c0.1,0.8,0.7,1,1.3,1.3
		c0.8,0.3,1.7,0.7,2.4,1.2c0.7,0.6,1.4,1.4,2,2.1c0.3,0.3,0.5,0.8,1.1,0.5c0.1,0,0.2,0,0.3,0c0.6,0.4,1.2,1.1,2.1,0.5
		c0,0,0.1,0,0.1,0.1c0.6,0.4,0.9,0,1.3-0.3c0.3-0.3,0.4-0.6,0.6-0.9c0.2-0.1,0.4-0.2,0.6-0.2c0.3,0.1,0.6,0.6,0.8,0.6
		c0.6-0.1,0.1-0.7,0.3-1c0,0,0-0.1,0.1-0.1l0.2-0.2c0.1,0.1,0.2,0.1,0.2,0.2c0,0.2,0.1,0.5,0.1,0.7c0.3,0.7,0.4,1.6,1.2,2
		c0.1-0.2,0.1-0.5,0.2-0.5c0.8-0.2,1.1-0.9,1.5-1.4c2.4-2.5,6.3-2.5,8.8-0.1c0.4,0.4,0.7,0.8,1,1.2c0.3,0.4,0.5,0.9,0.7,1.3
		c0.6,0.8,1.7,1.2,2.7,0.8c0.3-0.1,0.3-0.3,0.7-0.1c0.4,0.1,0.8,0.2,1.2,0.2c0.2,0,0.5,0,0.7,0.1c0.7,0.2,1.4,0.3,2.1,0.5
		c0.5,0.1,0.9,0,1-0.7c0.4-1.9,1.6-3.6,3.4-4.4c0.3-0.1,0.6-0.3,0.5-0.7c0-0.1,0.4-0.3,0.5-0.3c0.6,0.5,1.3,0.3,2,0.2
		c0.2,0,0.5,0.1,0.7,0.2c1,0.5,2,0.9,3,1.2c0.9,0.2,1.6,0.2,1.4,1.4c0,0.1,0.2,0.3,0.3,0.5c0.1,0.2,0.3,0.4,0.3,0.6
		c-0.1,0.7,0.4,0.8,0.9,0.8c1.2,0,2.3,0,3.5-0.1c0.4,0,0.8-0.2,1.1-0.5c0.3-0.3,0.6-0.5,0.9,0c0.1,0.3,0.3,0.3,0.6,0.2
		c0.3,0,0.7,0,1,0c1.4,0.4,1.5,0.3,2.2-0.8c2-3.4,6.6-4,9.1-1.8c0.3,0.2,0.6,0.4,0.9,0.7c0.7,0.6,1.2,1.2,1.7,2
		c0.2,0.6,0.5,0.7,1,0.7c0.2,0,0.5,0,0.7,0.1c1.6,0.6,3.2,0.3,4.8,0.2c1.2,0,1.6-0.6,2-1.6c1-3.2,4.4-5,7.6-4
		c0.8,0.3,1.6,0.7,2.2,1.3c0.8,0.7,1.5,1.6,1.9,2.7c0.1,0.4,0.3,0.8,0.8,0.8c0.5,0,0.7-0.4,0.9-0.8c0-0.1,0-0.3,0.1-0.3
		c0.2-0.1,0.4-0.2,0.7-0.2c-0.1,0.3-0.2,0.7-0.3,1c0,0.1,0,0.2,0.1,0.2c0.1,0,0.2,0,0.2-0.1c0.1-0.1,0.2-0.3,0.3-0.4
		c0.1,0,0.2,0,0.3,0c-0.3,1,0.6,0.6,1,0.8c0.2,0.1,0.4,0,0.4-0.4c-0.1-0.5,0.2-1.1,0.7-1.2c0.1,0,0.2,0,0.2,0c0.3,0,0.6-0.1,0.8-0.1
		c0.9-0.3,0.9-0.3,1.2,0.5c0.1,0.3,0.1,0.7,0.2,1.1c0,0.1,0.1,0.2,0.2,0.2c0-0.7,0.7,0.2,0.8-0.3c0.1-0.3,0.2-0.6,0.4-0.9
		c1-2,2.9-3.3,5.1-3.5c2.3-0.3,4.6,0.9,5.7,3c0.4,0.9,1.3,1.5,2.2,1.5c0.2,0,0.5,0,0.7,0c2,0,3.9,0,5.8,0.1c0.5,0.1,1.1-0.2,1.2-0.7
		c0,0,0,0,0-0.1c1.4-3.2,5-4.6,8.2-3.3c1.1,0.5,2,1.2,2.6,2.1c0.1,0.2,0.2,0.5,0.4,0.6c0.6,0.2,0.7,0.7,1,1.1
		c0.4,0.9,1.3,1.5,2.3,1.6c1.4,0,2.8,0.1,4.2,0.2c1,0,1.1-0.1,1.3-1.1c0.3-1.5,1.1-2.9,2.3-3.8c0.6-0.6,1.2-1,2-1.4
		c0.8-0.2,1.7-0.2,2.5,0c1.7,0.1,3.2,0.9,4.2,2.2c1,1.1,1.6,2.5,1.7,4c0,0.2,0.1,0.4,0.3,0.5c0,0,0.3-0.1,0.4-0.2s0.2-0.3,0.4-0.1
		c1,0.7,1.3,0.7,2.2,0c0.4-0.4,0.7-0.5,1.1-0.1c0.5,0.4,1.2,0.7,1.9,0.7c0.4,0,0.8,0,0.8-0.5c0-0.5,0.2-0.4,0.5-0.2l0.5,0.4l0.3,0.2
		c0-0.1,0.1-0.3,0.1-0.4c0-0.2,0-0.3,0-0.5c0-3.5,2.7-6.3,6.2-6.4c0.3,0,0.6,0,0.9,0c0.3,0,0.7,0.2,1,0.1c0.6-0.3,0.9-0.2,1.1,0.4
		c0.1,0.1,0.2,0.3,0.3,0.3c1,0.6,1.8,1.5,2.2,2.5c0.2,0.4,0.5,0.6,1,0.4c0.2-0.1,0.4-0.1,0.5-0.1c0,0.2,0.1,0.5,0,0.7
		c0,0.1-0.1,0.3-0.2,0.4c-0.2,0.4,0,0.8,0.3,1c0.2,0.3,0.7,0.4,1,0.2c0.2-0.1,0.3-0.2,0.5-0.2c0.3,0.7,0.7,0.1,1.1,0
		c0.3-0.1,0.6-0.1,0.9,0c0.5,0.3,1.1,0.3,1.6,0c0.5-0.4,0.9-0.3,1.2,0.3c0.1,0.1,0.2,0.2,0.3,0.2c0.4-0.4,0.8-0.9,1-1.4
		c0.4-1.2,1.2-2.3,2.2-3.2c0.7-0.5,1.2-1.4,1.9-1.6c0.9-0.1,1.8,0.1,2.6,0.4c2.3,0.5,4.2,1.5,5,3.8c0.1,0.3,0.3,0.6,0.5,0.8
		c0.2,0.3,0.4,0.3,0.6,0c0-0.1,0.2-0.1,0.3-0.2c0.1,0.1,0.1,0.2,0.1,0.3c0,1.5,0.5,1.9,1.9,1.8c0.5-0.1,1.1,0.1,1.5,0.4
		c0.4,0.2,0.7,0.2,1.1,0.2c0.5,0,0.3-0.5,0.4-0.8c0-0.2,0.1-0.3,0.2-0.5c0.2-0.4,0.5-0.6,0.8-0.2c0.4,0.4,0.6,0.2,0.9,0
		c0.4-0.3,0.7-0.7,0.7-1.2c0.6-2.9,3.1-5,6-5c0.8-0.1,1.6,0,2.4,0.3c0.9,0.4,1.9,0.6,2.4,1.7c0.1,0.2,0.3,0.4,0.6,0.4
		c0.4,0.1,0.6,0.2,0.5,0.6c0,0.2,0,0.3,0.1,0.5c0,0.1,0.2,0.2,0.2,0.3c0.1-0.1,0.2-0.2,0.2-0.3c0-0.1,0.1-0.3,0.1-0.4
		c0.2,0.1,0.3,0.2,0.5,0.3c1.2,1.3,2.2,2.6,4.2,2.3c0.1,0,0.2,0.1,0.3,0.1c0.7,0.2,1.2,0.3,1.7-0.4c0.3-0.5,0.7-0.3,0.9,0.3
		c0,0.1,0.1,0.2,0.1,0.4c0.1-0.1,0.2-0.2,0.2-0.4c0.4-2.8,2.6-5.1,5.4-5.6c0.6-0.2,1.2-0.2,1.7,0c1.7,0.4,3.3,1.5,4.4,2.9l0.1-0.3
		c0.1,0.1,0.2,0.3,0.3,0.5c0.7,0.4,0.7,1,0.9,1.6c0.1,0.6,1.5,1.4,2,0.9s0.6-0.5,0.8,0.1c0.1,0.2,0.2,0.4,0.4,0.6
		c0.5,0.4,1.1,0.7,1.6,1.1c0.1,0,0.2,0.1,0.3,0.1c0-0.1,0.1-0.2,0.1-0.3c-0.1-0.4-0.2-0.8-0.3-1.2c0-0.1,0.1-0.2,0.1-0.3
		c0,0.1,0.1,0.1,0.2,0.2s0.1,0.3,0.2,0.4c0.2,1,1.2,1.6,2.2,1.3c0.1,0,0.1,0,0.2-0.1c0.2-0.1,0.3-0.3,0.4-0.5
		c0.1-0.9-0.2-1.9-0.7-2.6c-0.9-1.3-1.5-2.9-1.5-4.5c0-0.3,0.1-0.5,0.3-0.7c0.1-0.1,0.4,0.1,0.6,0.2c0.9,0.6,1.7,1.4,2.1,2.4
		c0.2,0.3,0.3,0.4,0.6,0.1c0.9-1.1,2.2-1.8,3.6-2.1c0.4,0,0.8-0.4,0.7-0.9c0,0,0,0,0-0.1c0-2.2,0-4.5,0-6.7c0-0.4-0.3-0.8-0.7-0.8
		c-0.3-0.1-0.6-0.2-0.9-0.3c-3.2-1.1-4.9-4.7-3.8-7.9c0.7-2,2.3-3.4,4.3-3.9c1-0.3,1-0.3,1-1.4c0-1.8,0-3.6,0-5.4c0-1.6,0-1.6-1.5-2
		c-3.3-0.9-5.2-4.4-4.2-7.7c0.1-0.4,0.3-0.7,0.4-1.1c0.9-1.7,2.5-2.9,4.3-3.3c0.9-0.2,0.9-0.2,0.9-1.1c0-2.2,0-4.3,0-6.5
		C252,239.1,251.7,238.9,251.1,238.6z M249.7,197.5L249.7,197.5L249.7,197.5L249.7,197.5z M248.9,134.4l0.1,0.2l-0.2,0.1
		c0-0.1-0.1-0.1-0.1-0.2C248.8,134.5,248.9,134.5,248.9,134.4L248.9,134.4z M248.8,91.9L248.8,91.9c0.1,0.1,0,0.1,0,0.1
		C248.7,92,248.7,92,248.8,91.9L248.8,91.9z M248.3,95.4L248.3,95.4L248.3,95.4L248.3,95.4z M247.6,94.5c0.1,0.2,0.3,0.4,0.3,0.6
		c-0.1,0.3-0.2,0.7-0.4,1l-0.2-1.1L247.6,94.5z M247.7,48.7c0,0.1,0,0.1,0.1,0.2c0,0.1,0,0.2,0,0.3c-0.1-0.1-0.1-0.2-0.1-0.3
		C247.6,48.9,247.6,48.8,247.7,48.7L247.7,48.7z M248.2,35l0.1,0.1c-0.1,0-0.1,0.1-0.2,0.1c0,0-0.1-0.1,0-0.1
		C248.1,35.1,248.1,35.1,248.2,35L248.2,35z M6.1,16.1c0,0-0.1,0-0.2,0L6,15.9L6.2,16C6.2,16,6.2,16.1,6.1,16.1z M2.5,32.2
		c-0.2-0.4,0.1-0.6,0.3-0.8C2.7,31.6,2.7,31.9,2.5,32.2C2.5,32.2,2.5,32.2,2.5,32.2z M4.5,29.8l0.3-0.7c0,0,0,0.1,0,0.1
		c0,0.2,0,0.4,0,0.7L4.5,29.8z M5,35c0-0.1-0.1-0.1-0.1-0.2c0,0,0.1,0,0.1,0C5.1,34.9,5.1,34.9,5,35L5,35z M5.1,33.4l-0.5-0.5
		l0.3-0.2C5,32.8,5.2,33,5.2,33.1C5.3,33.2,5.2,33.3,5.1,33.4z M1.4,155.9C1.4,155.9,1.5,155.9,1.4,155.9c0.1-0.1,0.1,0.1,0.1,0.2
		l-0.1,0.1C1.4,156.2,12.6,156,1.4,155.9z M1.6,158.2c0-0.1-0.1-0.2-0.1-0.3c0.1-0.2,0.2-0.3,0.3-0.4c0.1,0.2,0.2,0.3,0.2,0.4
		C1.8,158,1.7,158.1,1.6,158.2L1.6,158.2z M7.3,184.3c-0.1,0-0.1-0.1-0.1-0.1l0.1-0.1C7.4,184.1,7.4,184.2,7.3,184.3
		C7.4,184.2,7.4,184.3,7.3,184.3L7.3,184.3z M8.7,11.8c0-0.1-0.1-0.1-0.1-0.2c0,0,0.1-0.1,0.1-0.1l0.1,0.2L8.7,11.8z M8.9,107.9
		L8.9,107.9C8.8,107.9,8.8,107.9,8.9,107.9L8.9,107.9C8.9,107.8,8.9,107.9,8.9,107.9z M9,169C9,169,9,169,9,169
		C9,168.8,9.1,168.9,9,169C9.1,168.9,9.1,169,9,169C9.1,169,9,169,9,169z M9.1,104.9l-0.1-0.2c0,0,0,0,0.1-0.1l0.1,0.2L9.1,104.9z
		 M8.9,247.6c0-0.1-0.1-0.1-0.1-0.2c0.1-0.1,0.1-0.2,0.2-0.2c0,0.1,0.1,0.1,0.1,0.2L8.9,247.6z M2,261.2c-0.1-0.2-0.3-0.4-0.5-0.7
		c0,0,0.1-0.1,0.1-0.2l0.5,0.6L2,261.2z M7.3,283.4c-0.1,0-0.1-0.1-0.1-0.1l0.1-0.1C7.3,283.2,7.3,283.3,7.3,283.4
		C7.4,283.4,7.3,283.4,7.3,283.4z M7.6,280.3c-0.1-0.1-0.1-0.2-0.1-0.3c0-0.1,0-0.2,0-0.3c0.1,0.1,0.2,0.1,0.2,0.2
		C7.7,280.1,7.7,280.2,7.6,280.3z M7.9,281.8L7.9,281.8L7.9,281.8L7.9,281.8z M9.5,253.6L9.5,253.6L9.5,253.6L9.5,253.6z M9.4,249.5
		c-0.1-0.1-0.2-0.2-0.2-0.4c0-0.1,0.1-0.3,0.2-0.3c0.1,0,0.3,0.1,0.5,0.2L9.4,249.5z M13.4,194.7L13.4,194.7l0.1-0.2l0.1,0.1
		C13.5,194.7,13.4,194.7,13.4,194.7L13.4,194.7z M14.5,6.8C14.5,6.8,14.4,6.8,14.5,6.8c0-0.1,0-0.2,0.1-0.2l0.1,0.2
		C14.6,6.8,14.5,6.8,14.5,6.8z M15.6,289.7L15.6,289.7L15.6,289.7L15.6,289.7z M16.6,80.9c0-0.1-0.1-0.2-0.1-0.2
		c0.1-0.1,0.2-0.1,0.3-0.2l0.1,0.2L16.6,80.9z M18.8,119.9c0.1,0.2,0.1,0.3,0.1,0.5c0,0.1-0.2,0.2-0.3,0.3c-0.1-0.1-0.1-0.3-0.1-0.4
		C18.5,120.2,18.6,120.1,18.8,119.9L18.8,119.9z M19.3,277.8c-0.6,0-1-0.4-1-1c0-0.2,0.2-0.3,0.4-0.4c0.5,0.1,0.9,0.6,1,1.2
		C19.5,277.7,19.4,277.8,19.3,277.8L19.3,277.8z M19.7,210.9l-0.1-0.1l0.1-0.1C19.7,210.7,19.7,210.8,19.7,210.9
		C19.8,210.9,19.7,210.9,19.7,210.9L19.7,210.9z M21,254.4C21,254.4,21,254.3,21,254.4c0-0.1,0-0.2,0-0.3l0,0.1
		C21.1,254.3,21,254.3,21,254.4L21,254.4z M21.7,153.2L21.7,153.2L21.7,153.2L21.7,153.2z M22.1,61.7C22.1,61.7,22.1,61.7,22.1,61.7
		C22,61.7,22.1,61.7,22.1,61.7C22.1,61.7,22.1,61.7,22.1,61.7C22.2,61.7,22.1,61.8,22.1,61.7L22.1,61.7z M23.7,262.7L23.7,262.7
		C23.7,262.7,23.7,262.7,23.7,262.7L23.7,262.7C23.7,262.7,23.7,262.7,23.7,262.7z M24.2,49.5L24,49.3c0,0,0.1-0.1,0.2-0.1
		c0,0,0.1,0.1,0.2,0.1L24.2,49.5z M24.8,120.5C24.8,120.5,24.7,120.5,24.8,120.5c0-0.1,0-0.2,0.1-0.2l0.1,0.1L24.8,120.5z
		 M25.8,288.6L25.8,288.6L25.8,288.6L25.8,288.6z M27.4,12.3c-0.1-0.1-0.2-0.1-0.2-0.2c0-0.1,0-0.2,0.1-0.3l0.4,0.3L27.4,12.3z
		 M28.2,101.2L28.2,101.2l0.1,0L28.2,101.2z M28.9,31.4c-0.1-0.1-0.1-0.1-0.1-0.2c0-0.1,0.1-0.1,0.1-0.2c0,0.1,0.1,0.1,0.1,0.2
		C28.9,31.3,28.9,31.3,28.9,31.4z M28.9,13.2l-0.1-0.3c0.1,0,0.2-0.1,0.2,0c0.1,0.1,0.1,0.1,0.1,0.2C29.1,13.1,28.9,13.2,28.9,13.2z
		 M29.9,14.2C29.9,14.2,29.8,14.2,29.9,14.2c0-0.1,0-0.2,0-0.2l0.1,0.1L29.9,14.2z M30.1,169.5L30.1,169.5
		C30,169.5,30,169.4,30.1,169.5L30.1,169.5C30.1,169.4,30.1,169.4,30.1,169.5L30.1,169.5z M31.5,12.6c0,0.1,0,0.1,0,0.2
		c0,0,0,0-0.1,0.1C31.5,12.8,31.5,12.7,31.5,12.6C31.4,12.6,31.5,12.6,31.5,12.6z M31.1,22.5L31.1,22.5L31.1,22.5L31.1,22.5z
		 M31.6,23.4c0,0-0.1,0-0.2,0l0.2-0.3c0.1,0.1,0.2,0.1,0.2,0.2C31.7,23.3,31.7,23.3,31.6,23.4L31.6,23.4z M34.8,9
		c0.1,0,0.1,0.1,0.1,0.1c0,0.1,0,0.3-0.1,0.4c-0.1-0.1-0.2-0.2-0.2-0.3S34.7,9.1,34.8,9z M34.4,10.1c0.1,0,0.1,0,0.2,0
		c0,0,0.1,0.1,0.1,0.2h-0.3C34.4,10.2,34.4,10.1,34.4,10.1L34.4,10.1z M34.3,82C34.3,82,34.2,82,34.3,82c0-0.2,0-0.2,0-0.3l0.1,0.2
		L34.3,82z M35.2,12c-0.2-0.3-0.4-0.5-0.5-0.8c0-0.1,0.1-0.2,0.1-0.3c0.1,0,0.2,0.1,0.3,0.2c0.1,0.2,0.2,0.5,0.3,0.8
		C35.4,11.9,35.3,12,35.2,12L35.2,12z M37.5,287.4C37.5,287.4,37.5,287.4,37.5,287.4C37.4,287.4,37.4,287.3,37.5,287.4L37.5,287.4
		C37.5,287.3,37.5,287.4,37.5,287.4z M39.9,165.3L39.9,165.3l0,0.2l-0.1-0.1L39.9,165.3z M39.3,240.6L39.3,240.6L39.3,240.6
		L39.3,240.6z M39.6,290.3c-0.3-0.2-0.6-0.4-0.8-0.6c0,0,0.1-0.2,0.1-0.3l1.2,0.7C39.8,290.2,39.7,290.3,39.6,290.3z M41.3,228.3
		C41.3,228.3,41.3,228.3,41.3,228.3C41.3,228.2,41.4,228.2,41.3,228.3C41.4,228.2,41.4,228.3,41.3,228.3
		C41.4,228.3,41.3,228.3,41.3,228.3L41.3,228.3z M41.4,261.2L41.4,261.2L41.4,261.2L41.4,261.2z M42.1,13.8
		C42.1,13.8,42.1,13.8,42.1,13.8C42,13.8,42,13.7,42.1,13.8L42.1,13.8C42.2,13.7,42.1,13.7,42.1,13.8L42.1,13.8z M43.2,261.8
		L43.2,261.8L43.2,261.8L43.2,261.8z M44.5,150.4l0.1-0.1L44.5,150.4L44.5,150.4z M44.7,37.6l-0.2-0.1c0,0,0.1-0.1,0.1-0.1
		c0,0,0.1,0,0.1,0C44.7,37.4,44.7,37.5,44.7,37.6z M45,156.1c0,0-0.1-0.1-0.1-0.1c0,0,0-0.1,0-0.1L45,156.1L45,156.1z M45.5,280
		C45.5,280,45.5,280,45.5,280C45.5,279.9,45.6,279.9,45.5,280C45.6,279.9,45.6,280,45.5,280L45.5,280z M46.8,138.1
		C46.8,138.1,46.8,138.1,46.8,138.1C46.8,138,46.8,138,46.8,138.1C46.9,138,46.8,138,46.8,138.1C46.8,138.2,46.8,138.1,46.8,138.1z
		 M47.1,250.5L47.1,250.5L47.1,250.5L47.1,250.5z M47.3,209.3c0-0.1,0-0.1,0-0.2s0.1-0.1,0.1,0c0.1,0,0.1,0.1,0.1,0.2L47.3,209.3z
		 M48.5,65L48.5,65C48.4,65,48.4,64.9,48.5,65C48.5,64.9,48.5,64.9,48.5,65C48.5,64.9,48.5,64.9,48.5,65z M50.4,200.5L50.4,200.5
		l-0.1-0.1C50.3,200.3,50.4,200.3,50.4,200.5C50.4,200.4,50.4,200.4,50.4,200.5L50.4,200.5z M50.7,189.8c0,0,0-0.1,0-0.1
		c0,0,0.1,0,0.1,0L50.7,189.8z M51.9,47.8L51.9,47.8l0.1-0.2c0,0,0,0,0.1,0.1L51.9,47.8z M52.6,119.1
		C52.6,119.1,52.5,119,52.6,119.1c0-0.1,0-0.2,0-0.2l0.1,0.1L52.6,119.1z M53.6,256.3c0-0.2,0.1-0.4,0.1-0.6c0,0.2,0.1,0.4,0.1,0.6
		l-0.1,0.5C53.6,256.6,53.6,256.4,53.6,256.3L53.6,256.3z M53.8,285.8C53.8,285.8,53.7,285.8,53.8,285.8c-0.1-0.1-0.1-0.1-0.1-0.1
		S53.8,285.6,53.8,285.8C53.8,285.7,53.9,285.6,53.8,285.8L53.8,285.8z M55.6,110.1c0,0,0-0.1,0-0.1h0.2c0,0,0,0.1,0,0.1L55.6,110.1
		z M56,99.5C56,99.5,56,99.4,56,99.5C56,99.4,56.1,99.4,56,99.5C56.1,99.4,56.1,99.5,56,99.5C56.1,99.5,56,99.5,56,99.5L56,99.5z
		 M56.6,290.1C56.6,290.1,56.5,290.1,56.6,290.1C56.5,290.1,56.5,290,56.6,290.1C56.5,290,56.6,290,56.6,290.1
		C56.6,290,56.5,290.1,56.6,290.1L56.6,290.1z M56.8,231.6L56.8,231.6L56.8,231.6L56.8,231.6z M57.8,2.6L57.8,2.6L57.8,2.6L57.8,2.6
		z M58.6,7.2C58.6,7.2,58.5,7.2,58.6,7.2c0-0.2,0-0.2,0-0.3L58.6,7C58.6,7.1,58.6,7.2,58.6,7.2z M61.9,141v0.1h-0.1L61.9,141z
		 M60.6,282.4l-0.1-0.2h0.1C60.7,282.3,60.7,282.3,60.6,282.4L60.6,282.4z M61.6,288.7c-0.1,0.1-0.3,0.2-0.5,0.1
		c-0.2-0.1-0.3-0.3-0.3-0.5c0-0.3,0.1-0.6,0.2-0.8c0.1-0.2,0.2-0.5,0.3-0.7c0.2,0.2,0.4,0.4,0.5,0.6c0.1,0.2,0.1,0.4,0.2,0.5
		C61.9,288.2,61.8,288.4,61.6,288.7L61.6,288.7z M66.7,282C66.7,282,66.7,282,66.7,282C66.6,282,66.7,281.9,66.7,282
		C66.7,281.9,66.7,281.9,66.7,282C66.8,281.9,66.8,282,66.7,282L66.7,282z M69.5,286.5c-0.1-0.1-0.2-0.2-0.2-0.3
		c0-0.1,0.1-0.2,0.1-0.3l0.3,0.3L69.5,286.5z M69.6,233.2L69.6,233.2l0.1-0.1L69.6,233.2z M69.9,269.5l-0.1-0.2l0.3-0.1
		c0,0.1,0.1,0.1,0.1,0.2C70.1,269.4,70,269.4,69.9,269.5L69.9,269.5z M70.8,153.8L70.8,153.8c0-0.1,0-0.2,0.1-0.2l0.1,0.1
		L70.8,153.8z M74.5,216.1c0,0,0-0.1,0-0.1L74.5,216.1L74.5,216.1z M75.2,179.1l0.1-0.2L75.2,179.1L75.2,179.1z M75.4,283.4
		c0-0.1-0.1-0.3-0.1-0.4s0.2-0.1,0.3-0.2l0.1,0.3L75.4,283.4z M76,211.2C76,211.2,76,211.2,76,211.2C76,211.2,76,211.1,76,211.2
		C76,211.1,76,211.1,76,211.2C76.1,211.1,76.1,211.1,76,211.2L76,211.2z M77.2,22.2L77.2,22.2L77.2,22.2L77.2,22.2z M77.6,58.6
		L77.6,58.6l0.1-0.1L77.6,58.6z M79.6,157.3C79.6,157.3,79.6,157.3,79.6,157.3C79.6,157.2,79.7,157.2,79.6,157.3
		C79.7,157.2,79.7,157.3,79.6,157.3C79.7,157.4,79.6,157.3,79.6,157.3L79.6,157.3z M79.7,46.2L79.7,46.2c-0.1-0.1-0.1-0.1-0.1-0.2
		L79.7,46.2C79.8,46.1,79.8,46.1,79.7,46.2L79.7,46.2z M80.4,82.3h-0.2c0-0.1,0-0.2,0-0.3c0-0.1,0.2,0,0.2,0.1
		C80.4,82.1,80.4,82.2,80.4,82.3z M83.4,108.5C83.4,108.5,83.3,108.5,83.4,108.5l0.1-0.2l0.1,0.2L83.4,108.5z M84.5,60.5
		C84.5,60.5,84.5,60.5,84.5,60.5C84.5,60.4,84.5,60.5,84.5,60.5C84.6,60.5,84.6,60.5,84.5,60.5C84.6,60.5,84.5,60.5,84.5,60.5z
		 M86.4,117.9L86.4,117.9L86.4,117.9L86.4,117.9z M87.3,119L87.3,119L87.3,119L87.3,119z M88.3,7.8c0-0.1,0-0.1,0-0.2l0.2,0.2
		C88.4,7.8,88.3,7.8,88.3,7.8z M90.3,176.4c-0.1-0.2-0.1-0.4-0.2-0.5c0-0.1,0.1-0.1,0.1-0.2l0.2,0.4L90.3,176.4z M92.7,249
		c0-0.1,0-0.1-0.1-0.2c0-0.1,0-0.1,0.1-0.2l0.1,0.2L92.7,249z M94.7,292.4c0,0-0.1,0.1-0.2,0.1c0-0.1,0-0.1,0-0.2
		c0.1-0.1,0.1-0.2,0.2-0.3c0.1,0,0.2,0.1,0.1,0.1C94.8,292.2,94.8,292.3,94.7,292.4z M96.2,157.5l0.1,0.1l-0.2,0.1
		c0,0-0.1-0.1-0.1-0.1C96.1,157.6,96.2,157.5,96.2,157.5z M95.6,229.7L95.6,229.7L95.6,229.7L95.6,229.7z M95.9,139.2L95.9,139.2
		c-0.1-0.1-0.1-0.1-0.1-0.2c0-0.1,0.1,0,0.1,0S95.9,139.2,95.9,139.2L95.9,139.2z M96.1,292.5c0-0.1-0.1-0.1-0.1-0.2
		c0.1-0.3,0.2-0.5,0.3-0.8l0.2,0.4L96.1,292.5z M102,15L102,15L102,15L102,15z M102,182.3L102,182.3L102,182.3L102,182.3z
		 M102.3,277.5c0,0.1-0.1,0.1-0.2,0.2c-0.1-0.1-0.1-0.3-0.1-0.4c0-0.1,0.1-0.1,0.3-0.3C102.3,277.2,102.3,277.3,102.3,277.5
		L102.3,277.5z M102.7,179.2c0,0,0.1-0.1,0.1-0.2c0.1,0.1,0.1,0.2,0.2,0.2c0,0-0.1,0.1-0.1,0.2C102.8,179.4,102.7,179.3,102.7,179.2
		L102.7,179.2z M103.1,243l-0.2-0.5c0.1-0.3,0.2-0.5,0.4-0.8c0,0.3,0,0.6,0,0.9C103.2,242.8,103.2,242.9,103.1,243L103.1,243z
		 M103.3,175.9C103.3,175.9,103.3,175.8,103.3,175.9l0.1,0C103.4,175.9,103.3,175.9,103.3,175.9L103.3,175.9z M103.7,209.6v-0.2
		c0,0,0.1,0,0.1,0c0,0.1,0,0.1,0,0.2L103.7,209.6z M105.9,197.1c-0.1,0-0.1-0.1,0-0.2c0,0,0,0,0,0l0.2,0.1L105.9,197.1z M107.1,80.1
		C107.1,80.1,107.1,80,107.1,80.1l0.2,0l-0.1,0.2C107.2,80.3,107.2,80.2,107.1,80.1L107.1,80.1z M107.5,260.4
		C107.5,260.4,107.4,260.4,107.5,260.4C107.4,260.4,107.4,260.4,107.5,260.4L107.5,260.4C107.5,260.3,107.5,260.4,107.5,260.4z
		 M107.4,187.1c0-0.1-0.1-0.2-0.1-0.3c0,0,0.1-0.1,0.2-0.1c0,0.1,0.1,0.2,0.1,0.3C107.6,187,107.5,187.1,107.4,187.1L107.4,187.1z
		 M107.7,124L107.7,124L107.7,124C107.6,123.9,107.7,123.9,107.7,124C107.7,124,107.7,124,107.7,124z M108.7,226.9
		C108.7,226.9,108.6,226.9,108.7,226.9C108.6,226.9,108.6,226.8,108.7,226.9C108.6,226.8,108.6,226.8,108.7,226.9
		C108.7,226.8,108.7,226.9,108.7,226.9L108.7,226.9z M110.8,5.9l-0.2-0.1L110.8,5.9C110.9,5.9,110.9,5.9,110.8,5.9z M111.1,106.8
		C111.1,106.8,111.1,106.8,111.1,106.8L111.1,106.8L111.1,106.8C111.2,106.9,111.1,106.9,111.1,106.8z M111.5,55L111.5,55L111.5,55z
		 M113.2,37.1C113.2,37.1,113.2,37,113.2,37.1C113.2,37,113.3,37,113.2,37.1C113.4,37,113.3,37,113.2,37.1
		C113.3,37.1,113.3,37.1,113.2,37.1z M113.5,70L113.5,70C113.4,70,113.4,69.9,113.5,70L113.5,70C113.5,69.9,113.5,69.9,113.5,70z
		 M113.9,239.5L113.9,239.5L113.9,239.5L113.9,239.5z M114,136.7L114,136.7c-0.1-0.1-0.1-0.1-0.1-0.2L114,136.7L114,136.7z
		 M115.2,70.6c0,0-0.1-0.1-0.1-0.1c0,0,0-0.1,0-0.1L115.2,70.6C115.2,70.6,115.2,70.6,115.2,70.6z M116.3,274.4L116.3,274.4
		L116.3,274.4C116.2,274.3,116.2,274.3,116.3,274.4C116.3,274.3,116.3,274.3,116.3,274.4z M117.2,8.2L117.2,8.2L117.2,8.2L117.2,8.2
		z M119,15.9L119,15.9L119,15.9L119,15.9z M119.8,257.1h-0.2V257L119.8,257.1L119.8,257.1z M120,6.8L120,6.8L120,6.8L120,6.8z
		 M121.6,184L121.6,184C121.5,184,121.5,183.9,121.6,184C121.5,183.9,121.6,183.9,121.6,184C121.6,184,121.6,184,121.6,184
		L121.6,184z M129.9,190.8C129.9,190.8,129.8,190.8,129.9,190.8C129.8,190.8,129.8,190.8,129.9,190.8
		C129.8,190.7,129.9,190.7,129.9,190.8C129.9,190.8,129.9,190.8,129.9,190.8L129.9,190.8z M131.1,48.8
		C131.1,48.8,131.1,48.7,131.1,48.8C131.1,48.6,131.1,48.7,131.1,48.8C131.2,48.7,131.2,48.7,131.1,48.8
		C131.2,48.8,131.1,48.8,131.1,48.8L131.1,48.8z M134.6,4.4L134.6,4.4L134.6,4.4L134.6,4.4z M139.2,251.3L139.2,251.3L139.2,251.3
		L139.2,251.3z M136.2,218.4L136.2,218.4L136.2,218.4C136.3,218.5,136.2,218.5,136.2,218.4C136.2,218.5,136.2,218.4,136.2,218.4
		L136.2,218.4z M135.7,231.1L135.7,231.1C135.8,231.1,135.8,231.2,135.7,231.1C135.7,231.2,135.8,231.2,135.7,231.1
		C135.6,231.2,135.7,231.2,135.7,231.1L135.7,231.1z M135.3,100.2c0,0.1,0.1,0.2,0.1,0.3c0,0-0.1,0.1-0.1,0.1
		c-0.1-0.1-0.1-0.2-0.1-0.3C135.1,100.3,135.2,100.3,135.3,100.2z M135.4,255.5c-0.1-0.2-0.2-0.4-0.2-0.6c0,0,0.1-0.1,0.2-0.1
		c0.1,0.2,0.1,0.4,0.2,0.7C135.6,255.4,135.4,255.5,135.4,255.5z M135.5,253c0-0.1-0.1-0.3-0.1-0.4l0.1,0c-0.1-0.2-0.2-0.4-0.3-0.6
		c-0.2-0.3-0.3-0.5-0.5-0.8c-0.1-0.3-0.1-0.5-0.1-0.8c0.3,0,0.7-0.2,0.9,0c0.5,0.2,1,0.6,0.9,1.2c0,0.6-0.3,1.2-0.8,1.6
		C135.7,253.1,135.5,253.1,135.5,253L135.5,253z M137.3,255.4c-0.2,0-0.7,0-0.7-0.2c-0.2-0.4-0.2-0.9-0.7-1.1
		c0.1-0.1,0.1-0.4,0.3-0.4s0.4-0.1,0.5,0c0.3,0.4,0.6,0.8,0.9,1.2c0,0.1,0.1,0.2,0.1,0.3C137.5,255.3,137.4,255.5,137.3,255.4
		L137.3,255.4z M139.4,255.8c-0.2-0.1-0.4-0.1-0.5-0.3c-0.3-0.5-0.6-1-1-1.5l0,0c-0.1,0-0.2,0-0.3-0.1c-0.1-0.1-0.2-0.3-0.2-0.5
		c0,0,0.1-0.1,0.2-0.2c0.1,0.1,0.2,0.3,0.3,0.4c0,0.1,0,0.2,0,0.3l0,0l0,0c0.7,0,1.4,0.5,1.6,1.2
		C139.6,255.4,139.4,255.6,139.4,255.8L139.4,255.8z M140.3,138.2c-0.1-0.1-0.1-0.2-0.2-0.2c-0.1-0.1,0.1-0.1,0.2-0.1
		c0.1,0.1,0.2,0.1,0.2,0.2C140.4,138.1,140.3,138.1,140.3,138.2L140.3,138.2z M141.6,128.4L141.6,128.4
		C141.5,128.4,141.5,128.3,141.6,128.4C141.5,128.3,141.6,128.3,141.6,128.4C141.7,128.3,141.6,128.4,141.6,128.4L141.6,128.4z
		 M143,157.7c0-0.1,0-0.1,0-0.2h0.1c0,0.1,0.1,0.1,0.1,0.2L143,157.7z M144.6,163.8L144.6,163.8L144.6,163.8L144.6,163.8z
		 M149.4,83.5C149.4,83.5,149.4,83.5,149.4,83.5L149.4,83.5C149.4,83.4,149.4,83.5,149.4,83.5L149.4,83.5z M152.9,245.3
		c0-0.1-0.1-0.2-0.1-0.3c0,0,0.2-0.1,0.2-0.1c0.1,0.1,0.1,0.2,0.2,0.3L152.9,245.3z M153.3,232.5L153.3,232.5l0.1-0.1L153.3,232.5z
		 M153.8,115.4L153.8,115.4C153.7,115.4,153.7,115.3,153.8,115.4C153.7,115.3,153.8,115.3,153.8,115.4
		C153.8,115.3,153.8,115.4,153.8,115.4L153.8,115.4z M154.5,94C154.5,94,154.5,94,154.5,94C154.6,94,154.6,94,154.5,94L154.5,94
		C154.5,94.1,154.5,94,154.5,94L154.5,94z M154.8,288.8c-0.1-0.1-0.2-0.3-0.3-0.4c0-0.1,0.1-0.3,0.2-0.6c0.1,0.2,0.3,0.4,0.3,0.6
		C154.9,288.5,154.8,288.7,154.8,288.8L154.8,288.8z M156.7,6.2c0,0,0-0.1,0-0.1c0,0,0.1,0,0.1,0C156.9,6,156.8,6.1,156.7,6.2
		C156.8,6.2,156.7,6.2,156.7,6.2L156.7,6.2z M157.1,4.5C157.1,4.5,157,4.6,157.1,4.5l-1.4-0.6l0.2-0.4L157.1,4.5
		C157.1,4.4,157.1,4.5,157.1,4.5L157.1,4.5z M158,33.5l-0.1-0.1l0.1-0.1C158,33.3,158.1,33.4,158,33.5L158,33.5L158,33.5z
		 M159.5,11.8c-0.1,0-0.1-0.1-0.1-0.1c0,0,0-0.1,0.1-0.2l0.2,0.2C159.5,11.7,159.5,11.8,159.5,11.8z M161.2,187.8L161.2,187.8
		L161.2,187.8L161.2,187.8z M162.6,183.1C162.6,183.1,162.5,183.1,162.6,183.1C162.5,183.1,162.5,183,162.6,183.1
		C162.5,183,162.6,183,162.6,183.1C162.6,183,162.6,183,162.6,183.1L162.6,183.1z M162.9,188.7C162.9,188.7,162.8,188.7,162.9,188.7
		c-0.1,0-0.1-0.1-0.1-0.2c0-0.1,0.1,0,0.1,0S162.9,188.6,162.9,188.7L162.9,188.7z M164.1,107.2L164.1,107.2L164.1,107.2
		L164.1,107.2z M165.8,8.7c0-0.1-0.1-0.1-0.1-0.2s0.1-0.1,0.1-0.1c0,0,0.1,0.1,0.1,0.2S165.8,8.6,165.8,8.7L165.8,8.7z M166.1,98.1
		L166.1,98.1L166.1,98.1L166.1,98.1z M166.3,30.6c0-0.1,0-0.1-0.1-0.2c0,0,0.1,0,0.1,0C166.3,30.5,166.3,30.5,166.3,30.6
		C166.4,30.6,166.3,30.6,166.3,30.6L166.3,30.6z M166.7,9.8c-0.1-0.1-0.1-0.3-0.1-0.4c0,0,0.1-0.1,0.2-0.2l0.2,0.5L166.7,9.8z
		 M167.3,173.4v-0.1C167.3,173.3,167.4,173.3,167.3,173.4C167.4,173.4,167.3,173.3,167.3,173.4L167.3,173.4z M167.7,184.1
		C167.7,184.1,167.6,184.1,167.7,184.1C167.6,184.1,167.6,184,167.7,184.1C167.6,183.9,167.7,184,167.7,184.1
		C167.7,184.1,167.7,184,167.7,184.1L167.7,184.1z M168,167.5L168,167.5L168,167.5L168,167.5z M168.4,116.4
		C168.4,116.4,168.4,116.4,168.4,116.4C168.4,116.3,168.5,116.3,168.4,116.4C168.6,116.3,168.5,116.3,168.4,116.4
		C168.5,116.5,168.5,116.4,168.4,116.4L168.4,116.4z M169.1,174.2c0-0.1-0.1-0.1-0.1-0.2c0,0,0,0,0.1-0.1L169.1,174.2L169.1,174.2z
		 M169.1,79L169.1,79C169,79,169,78.9,169.1,79C169,78.9,169.1,78.9,169.1,79C169.2,78.9,169.2,78.9,169.1,79L169.1,79z
		 M169.5,185.1c-0.1-0.1-0.1-0.2-0.2-0.2l0.2-0.2c0.1,0.1,0.1,0.2,0.2,0.3C169.7,185,169.6,185,169.5,185.1L169.5,185.1z
		 M170.8,156.2v-0.1l0.2,0.1L170.8,156.2z M171,35.1V35V35.1L171,35.1z M172.3,146.5c-0.1-0.1-0.1-0.2-0.1-0.2c0,0,0.1-0.1,0.1-0.1
		l0.2,0.2L172.3,146.5z M172.8,131.7C172.8,131.7,172.7,131.7,172.8,131.7c-0.1-0.1-0.1-0.1-0.1-0.1s0.1,0,0.1,0
		C172.8,131.6,172.8,131.6,172.8,131.7L172.8,131.7z M174.5,97.3c-0.1,0-0.2-0.1-0.3-0.1c0-0.1,0-0.2,0.1-0.2c0.1,0,0.2,0,0.3,0
		C174.6,97.2,174.5,97.3,174.5,97.3z M175.6,27.7c-0.1,0-0.1-0.1-0.2-0.2c0,0,0.1-0.1,0.1-0.2l0.2,0.3
		C175.7,27.6,175.7,27.7,175.6,27.7L175.6,27.7z M176,21.1C176,21.1,175.9,21.1,176,21.1L176,21.1C176,21,176,21,176,21.1L176,21.1z
		 M176.3,22.4c0-0.1,0-0.1,0-0.2h0.1C176.4,22.3,176.4,22.3,176.3,22.4L176.3,22.4z M176.5,147.3
		C176.5,147.3,176.4,147.3,176.5,147.3C176.4,147.3,176.4,147.2,176.5,147.3C176.4,147.2,176.5,147.2,176.5,147.3
		C176.5,147.2,176.5,147.2,176.5,147.3L176.5,147.3z M177.2,22.3C177.2,22.3,177.2,22.3,177.2,22.3
		C177.2,22.2,177.3,22.2,177.2,22.3C177.3,22.2,177.3,22.3,177.2,22.3C177.3,22.4,177.2,22.3,177.2,22.3L177.2,22.3z M177.4,14.9
		c-0.1-0.2-0.3-0.4-0.3-0.6c0-0.1,0.2-0.3,0.3-0.5c0.1,0.1,0.3,0.3,0.4,0.5C177.6,14.5,177.5,14.7,177.4,14.9L177.4,14.9z
		 M178.7,23.8L178.7,23.8L178.7,23.8L178.7,23.8z M179.7,69c0-0.1,0-0.1,0-0.2h0.1L179.7,69L179.7,69z M182.1,293.5
		C182.1,293.5,182.1,293.5,182.1,293.5C182,293.5,182,293.5,182.1,293.5L182.1,293.5C182.1,293.4,182.1,293.5,182.1,293.5
		L182.1,293.5z M182.5,7.2C182.5,7.2,182.5,7.1,182.5,7.2C182.5,7.1,182.6,7.1,182.5,7.2C182.6,7.1,182.6,7.1,182.5,7.2
		C182.6,7.2,182.5,7.2,182.5,7.2L182.5,7.2z M183.1,47.2l-0.2-0.1L183,47C183.1,47,183.1,47.1,183.1,47.2
		C183.2,47.1,183.1,47.2,183.1,47.2L183.1,47.2z M183.8,119.6C183.8,119.6,183.8,119.6,183.8,119.6
		C183.7,119.6,183.7,119.5,183.8,119.6L183.8,119.6C183.9,119.5,183.8,119.6,183.8,119.6L183.8,119.6z M185.2,8L185.2,8
		c0-0.1,0-0.2,0.1-0.2l0.1,0.1C185.3,8,185.3,8,185.2,8z M187.3,147.1c0-0.1-0.1-0.1-0.1-0.2c0-0.1,0.1-0.1,0.1-0.2
		c0-0.1,0,0.1,0.1,0.2L187.3,147.1z M192,63C192,63,192,62.9,192,63C192,62.9,192.1,62.9,192,63C192.2,62.9,192.1,63,192,63
		C192.1,63,192.1,63,192,63L192,63z M192.3,95.8C192.3,95.8,192.2,95.8,192.3,95.8C192.2,95.8,192.2,95.8,192.3,95.8
		C192.2,95.7,192.3,95.7,192.3,95.8C192.3,95.7,192.3,95.8,192.3,95.8z M195.7,125.4c0-0.1-0.1-0.2-0.1-0.3c0,0,0.2-0.1,0.2-0.1
		c0.1,0.1,0.1,0.2,0.1,0.3L195.7,125.4z M196.1,114.7L196.1,114.7C196.1,114.6,196.2,114.6,196.1,114.7c0.1-0.1,0.1-0.1,0.1,0
		L196.1,114.7z M197.6,288.3c-0.1-0.2-0.3-0.3-0.2-0.3c0.1-0.1,0.1-0.2,0.2-0.3c0.1,0.1,0.2,0.1,0.2,0.2
		C197.7,288,197.6,288.1,197.6,288.3z M199,30.7L199,30.7L199,30.7L199,30.7z M199,132L199,132L199,132L199,132z M200.6,139.7
		C200.6,139.7,200.6,139.7,200.6,139.7C200.6,139.6,200.7,139.6,200.6,139.7C200.7,139.6,200.7,139.7,200.6,139.7
		C200.6,139.7,200.6,139.7,200.6,139.7L200.6,139.7z M201.3,6.4L200.7,6c0.1-0.1,0.1-0.2,0.2-0.2c0.2,0.1,0.4,0.2,0.6,0.3L201.3,6.4
		z M203.1,179.5L203.1,179.5L203.1,179.5L203.1,179.5z M204.4,286.6c0-0.1-0.1-0.2-0.1-0.3c0-0.1-0.1-0.2-0.1-0.3
		c0-0.1,0.1-0.2,0.1-0.3c0.1,0.1,0.2,0.2,0.2,0.2c0,0.1,0,0.3,0,0.4L204.4,286.6z M204.6,273.3C204.6,273.3,204.6,273.3,204.6,273.3
		c0-0.1,0-0.1,0.1-0.1L204.6,273.3L204.6,273.3z M206,128.6C206,128.6,205.9,128.6,206,128.6C205.9,128.6,205.9,128.6,206,128.6
		C205.9,128.6,206,128.6,206,128.6C206,128.6,206,128.6,206,128.6L206,128.6z M207.2,118.8C207.2,118.8,207.2,118.8,207.2,118.8
		C207.2,118.7,207.2,118.8,207.2,118.8C207.3,118.8,207.2,118.8,207.2,118.8C207.2,118.9,207.2,118.8,207.2,118.8L207.2,118.8z
		 M208.2,193.1C208.2,193.1,208.2,193.1,208.2,193.1C208,193.1,208.1,193,208.2,193.1C208.1,193,208.1,193,208.2,193.1
		C208.2,193,208.2,193.1,208.2,193.1L208.2,193.1z M209.3,8.9c-0.1,0-0.3-0.1-0.4-0.2c0-0.1,0.1-0.2,0.1-0.2c0.2,0,0.3,0.1,0.4,0.2
		C209.4,8.8,209.3,8.9,209.3,8.9z M211.7,138L211.7,138L211.7,138z M214.3,120.3L214.3,120.3L214.3,120.3L214.3,120.3z M214.2,135.1
		c0-0.3-0.1-0.5-0.1-0.8c0-0.1,0.1-0.2,0.2-0.2c0.1,0.2,0.1,0.4,0.2,0.6C214.5,134.7,214.3,134.8,214.2,135.1z M214.8,133.2
		L214.8,133.2L214.8,133.2L214.8,133.2z M216.5,78.7L216.5,78.7C216.4,78.7,216.4,78.7,216.5,78.7C216.4,78.6,216.5,78.6,216.5,78.7
		C216.5,78.6,216.5,78.6,216.5,78.7L216.5,78.7z M216.6,27.7L216.6,27.7L216.6,27.7L216.6,27.7z M218.2,79.2
		C218.2,79.2,218.1,79.2,218.2,79.2C218.1,79.2,218.1,79.1,218.2,79.2C218.1,79.1,218.2,79.1,218.2,79.2
		C218.2,79.1,218.2,79.1,218.2,79.2L218.2,79.2z M218.8,89.6C218.8,89.6,218.7,89.6,218.8,89.6c0-0.2,0-0.1,0-0.1
		S218.8,89.5,218.8,89.6C218.8,89.6,218.8,89.6,218.8,89.6L218.8,89.6z M220.9,4L220.9,4L220.9,4L220.9,4z M221.4,153.1
		c-0.4,0-0.9-0.7-0.7-1c0-0.1,0.1-0.1,0.2-0.1c0.4,0.1,0.7,0.5,0.7,0.9C221.6,153,221.5,153,221.4,153.1L221.4,153.1z M222.8,160
		c-0.5-0.2-0.5-0.6-0.5-0.9c0-0.4,0.2-0.6,0.5-0.5c0.2,0.1,0.4,0.3,0.5,0.6C223.4,159.5,223.1,159.9,222.8,160L222.8,160z
		 M224.3,151.5l-0.1-0.1l0.1-0.1L224.3,151.5C224.4,151.5,224.4,151.5,224.3,151.5L224.3,151.5z M224.3,106
		C224.3,106,224.3,106,224.3,106c0-0.1,0-0.1,0-0.1L224.3,106C224.4,106,224.4,106,224.3,106L224.3,106z M224.9,158.2L224.9,158.2
		l0-0.2h0.1L224.9,158.2z M225.2,52.6l-0.1-0.2c0.1,0,0.1,0,0.2,0c0,0,0,0.1,0,0.1C225.2,52.5,225.2,52.6,225.2,52.6z M225.4,165.3
		c-0.1-0.1-0.2-0.2-0.2-0.3c0.1-0.2,0.2-0.4,0.3-0.6c0.1,0.3,0.3,0.5,0.2,0.6C225.7,165,225.5,165.2,225.4,165.3L225.4,165.3z
		 M225.9,158.6c0-0.1-0.1-0.2,0-0.2c0.1-0.1,0.1-0.1,0.2-0.1c0,0.1,0,0.1,0.1,0.2L225.9,158.6z M226.1,87.9h0.2v0.2h-0.1
		C226.1,88.1,226.1,88,226.1,87.9L226.1,87.9z M226.3,263.2l-0.2-0.1V263L226.3,263.2L226.3,263.2z M226.3,259.6v-0.1V259.6
		L226.3,259.6z M226.4,161.5c0-0.1-0.1-0.2-0.1-0.3c0-0.1,0.1-0.2,0.1-0.3l0.3,0.2L226.4,161.5z M228.6,169.8
		c-0.1-0.1-0.1-0.2-0.1-0.3c-0.1-0.3-0.1-0.6-0.2-0.8c0-0.1,0.1-0.2,0.1-0.3c0,0.1,0.1,0.1,0.1,0.2c0.1,0.3,0.1,0.5,0.1,0.8
		C228.7,169.6,228.6,169.7,228.6,169.8L228.6,169.8z M230,122.5L230,122.5l0.2,0c0,0,0,0-0.1,0.1L230,122.5z M230.2,288.7
		L230.2,288.7l0.1-0.2c0,0,0,0,0.1,0.1L230.2,288.7z M230.7,95.7C230.7,95.7,230.6,95.7,230.7,95.7
		C230.6,95.7,230.6,95.7,230.7,95.7C230.6,95.6,230.6,95.7,230.7,95.7C230.7,95.7,230.6,95.8,230.7,95.7L230.7,95.7z M231,260.2
		L231,260.2L231,260.2L231,260.2z M231.1,119.7l-0.1-0.2l0.2-0.1c0,0,0.1,0.1,0.1,0.1C231.2,119.6,231.2,119.7,231.1,119.7
		L231.1,119.7z M232.1,90.8L232.1,90.8L232.1,90.8L232.1,90.8z M232.3,269.1c-0.1-0.1-0.1-0.2-0.1-0.3c0,0,0.1-0.1,0.1-0.1l0.2,0.3
		L232.3,269.1z M233.5,223.9L233.5,223.9L233.5,223.9L233.5,223.9z M233.7,266.1c0-0.1,0-0.1,0-0.2c0,0,0,0,0.1,0
		C233.8,265.8,233.7,265.9,233.7,266.1C233.7,266.1,233.7,266.1,233.7,266.1L233.7,266.1z M235.8,213.7
		C235.8,213.7,235.7,213.7,235.8,213.7c-0.1-0.1-0.1,0-0.1-0.1s0.1,0,0.1,0C235.8,213.6,235.8,213.6,235.8,213.7z M236.5,221.2
		c-0.1,0-0.1,0-0.2,0l0-0.2C236.4,221,236.5,221,236.5,221.2C236.5,221.1,236.5,221.1,236.5,221.2L236.5,221.2z M238.7,209.8
		L238.7,209.8L238.7,209.8L238.7,209.8z M239.2,285.2c0-0.1,0-0.1,0-0.2c0,0,0,0,0.1-0.1C239.3,285,239.3,285.1,239.2,285.2
		C239.4,285.2,239.3,285.2,239.2,285.2L239.2,285.2z M239.9,109C239.9,109,239.9,109,239.9,109C239.7,109,239.8,109,239.9,109
		C239.8,109,239.9,109,239.9,109C239.9,109,239.9,109,239.9,109z M240,33.1l-0.2-0.4c0.1-0.2,0.1-0.3,0.1-0.4c0,0.1,0.1,0.2,0.1,0.3
		C240.1,32.8,240,32.9,240,33.1L240,33.1z M240.6,210.6c0,0-0.1-0.1-0.1-0.1c0,0,0-0.1,0.1-0.1L240.6,210.6L240.6,210.6z M242,7
		c-0.1-0.2-0.3-0.4-0.4-0.6c0,0,0-0.1,0-0.1c0,0,0.1,0,0.1,0l0.5,0.5L242,7z M242.6,216.2C242.6,216.2,242.6,216.1,242.6,216.2
		L242.6,216.2C242.7,216.1,242.7,216.2,242.6,216.2L242.6,216.2z M242.7,9.1C242.7,9.1,242.6,9,242.7,9.1c0-0.1,0-0.2,0-0.2l0.1,0.1
		L242.7,9.1z M243.4,262.3C243.4,262.3,243.3,262.3,243.4,262.3c0-0.1,0-0.2,0-0.2l0.1,0.1L243.4,262.3z M243.9,285.5
		c-0.1-0.2-0.2-0.3-0.2-0.5c0-0.1,0.1-0.2,0.1-0.3l0.3,0.4L243.9,285.5z M243.9,216.5c-0.1-0.1-0.1-0.2-0.1-0.3c0,0,0.1-0.1,0.1-0.1
		l0.2,0.2L243.9,216.5z M243.8,117.2L243.8,117.2L243.8,117.2L243.8,117.2z M244.1,7.4c0,0.1-0.1,0.1-0.2,0.1c-0.1,0-0.1,0-0.2-0.1
		c0-0.1-0.1-0.2-0.1-0.3c0-0.3,0-0.6,0-0.9l0.5,0.7C244.2,7,244.2,7.2,244.1,7.4L244.1,7.4z M251.7,266.4
		C251.7,266.4,251.7,266.5,251.7,266.4c0,0.1-0.1,0.2-0.1,0.2L251.7,266.4L251.7,266.4z"/>
	<path class="st0" d="M2.3,33.5L2.3,33.5z"/>
	<path class="st0" d="M17.8,292.9L17.8,292.9L17.8,292.9z"/>
</g>
</svg>
