<?xml version="1.0" encoding="utf-8"?>
<!-- Generator: Adobe Illustrator 24.1.0, SVG Export Plug-In . SVG Version: 6.00 Build 0)  -->
<svg version="1.1" id="Layer_1" xmlns="http://www.w3.org/2000/svg" xmlns:xlink="http://www.w3.org/1999/xlink" x="0px" y="0px"
	 viewBox="0 0 253.4 297.5" style="enable-background:new 0 0 253.4 297.5;" xml:space="preserve">
<style type="text/css">
	.st0{fill:#5C6161;}
	.st1{fill:#84ACAF;}
	.st2{fill:#A6CCCC;}
</style>
<g id="Layer_2_1_">
	<g id="Layer_1-2">
		<path class="st0" d="M83.9,88.2c1-8.3,4-16.9,10.2-22.8c-3.8,7-5.8,14.6-7.7,22.2L83.9,88.2z"/>
		<path class="st1" d="M90.4,4.2L90.4,4.2L90.4,4.2z"/>
		<path class="st2" d="M252.5,239.1c-0.8-0.3-1.6-0.7-2.3-1.2c-1.8-1.4-2.6-3.7-2.1-5.9c0.4-2.3,2.1-4.2,4.3-4.8c1-0.3,1-0.3,1-1.4
			c0-2,0-4,0-6c0-1.8,0.2-1.5-1.4-2.1c-3.2-1.3-4.7-4.9-3.5-8.1c0.7-1.8,2.2-3.1,4-3.6c0.6-0.1,1-0.7,0.9-1.2c0-2.3,0-4.6,0-6.9
			c0-0.9-0.1-0.9-1-1.1c-3.3-0.7-5.5-4-4.7-7.3c0.4-2,1.8-3.7,3.7-4.4c0.4-0.2,0.8-0.3,1.3-0.4c0.5,0,0.8-0.4,0.8-0.9l0,0
			c0-2.4,0-4.9,0-7.3c0-0.5-0.2-0.8-0.7-0.8c-1.6-0.2-3.1-1-4-2.4c-2.1-2.7-1.6-6.6,1.1-8.6c0.8-0.6,1.7-1,2.6-1.2
			c0.9-0.2,0.9-0.2,0.9-1.1c0-2.1,0-4.2,0-6.3c0-0.6-0.2-1-0.9-1.1c-0.3-0.1-0.6-0.1-0.9-0.2c-2.8-1-4.5-3.9-4-6.9
			c0.4-2.5,2.3-4.5,4.8-5c0.6-0.1,1-0.3,1-1c0-2.4,0-4.8,0-7.3c0-0.6-0.2-0.8-0.8-0.9c-1-0.2-2-0.6-2.7-1.3c-2.4-2-3-5.4-1.4-8.1
			c0.9-1.4,2.3-2.5,4-2.9c0.9-0.3,1-0.3,1-1.3c0-1.8,0-3.7,0-5.5c0-1.5,0-1.5-1.4-1.8c-2.2-0.5-4-2.2-4.6-4.4
			c-0.3-1.3-0.3-2.6-0.1-3.9c0-0.3,0.4-0.5,0.6-0.8c1-1.8,2.8-3,4.9-3.2c0.4,0,0.7-0.3,0.7-0.7c0-0.1,0-0.1,0-0.2c0-2.3,0-4.7,0-7
			c0-0.7-0.3-0.8-0.9-1c-1-0.2-2-0.6-2.9-1.2c-2.1-1.5-3-4.2-2.1-6.7c0.6-2.4,2.6-4.2,5.1-4.4c0.9-0.2,0.9-0.3,0.9-1.1
			c0-2.3,0-4.5,0-6.8c0-0.8-0.1-0.8-0.9-1c-0.8-0.1-1.7-0.3-2.5-0.7c-2.4-1.3-3.8-4-3.3-6.7c0.4-2.7,2.6-4.8,5.4-5.2
			c0.2,0,0.4,0,0.6-0.1c0.4,0,0.7-0.2,0.7-0.7c0-2.2,0-4.3,0-6.5c0-0.6-0.5-1.2-1.1-1.3c-1.1-0.4-2.2-0.9-3.3-1.3
			c-0.2-0.3-0.5-0.5-0.7-0.8c-2.2-2.6-1.9-6.6,0.8-8.8c0.7-0.6,1.6-1,2.5-1.3c1.2-0.3,1.4-0.6,1.4-1.8c-0.1-1.9-0.2-3.8-0.2-5.8
			c0-0.5-0.3-1-0.9-1.1c-2-0.7-3.5-2.2-4-4.2c-0.9-2.6,0.8-6.7,3.6-7.5c1-0.3,1.5-0.8,1.4-1.8c0-0.3,0.2-0.6,0.3-0.9
			c0.2-0.3,0.3-0.7,0.3-1c0-1.5,0-3,0-4.4c0-0.7-0.4-1.4-1.1-1.6c-0.7-0.2-1.4-0.4-2.1-0.5c-0.1,0-0.2,0-0.3-0.1
			c-0.6-0.8-1.3-1.7-1.9-2.5c-0.1-0.1-0.2-0.2-0.3-0.3c0,0.2,0,0.3,0,0.5c0.2,0.6-0.5,0.7-0.7,1c-0.2-0.2-0.4-0.4-0.6-0.6
			c-0.1-0.2-0.2-0.4-0.3-0.5c-0.3-0.5-0.6-0.5-1-0.2c-0.2,0.2-0.4,0.5-0.7,0.7c-0.3,0.1-0.6,0.2-0.9,0.2c-0.3,0-0.6-0.1-0.9-0.2
			c0.1,0.3,0.1,0.6,0.2,0.9c0,0.1,0,0.2,0,0.2c-1.3,0-2-0.9-3-1.6c-0.7-0.5-0.7-0.6-1,0.3L239,4.9c-0.1,0.4-0.4,0.5-0.6,0.2
			c-0.4-0.7-0.7-0.6-1.2-0.1c-0.3,0.3-0.6,0.6-1,0.9c-0.6,0.5-1.3,1-2,1.4c-0.6,0.2-1.3,0.3-1.9,0.3c-2.4,0.2-4.8-1-5.9-3.1
			c-0.2-0.3-0.3-0.7-0.5-1s-1.5-0.8-1.7-0.5c-0.4,0.5-0.7,0.3-1,0.1c-0.6-0.5-1.3-0.6-1.8,0.2c-0.1,0.1-0.3,0.2-0.4,0.2
			c-1-0.3-2.1,0.3-3-0.7c-0.4-0.5-0.7-0.3-1.1,0.3s-0.7,1.3-1,2c-0.1,0.3-0.4,0.6-0.7,0.8c-0.5,0.3-1.1,0.4-1.7,0.6
			c-1,0.5-2,0.7-3.1,0.6c-2.2-0.3-4.1-1.7-5-3.8c-0.2-0.4-0.4-0.7-0.9-0.5s-0.8,0-0.8,0.7c0,0.2-0.1,0.3-0.2,0.4
			c-0.4,0.6-0.7,0.5-1.1-0.1s-0.7-0.8-1.6-0.6c-0.2,0-0.4,0-0.5-0.1c-0.6-0.5-1.3-0.3-2-0.3c-0.5,0-0.6,0.2-0.5,0.7
			c0,0.5,0,1-0.1,1.5c0,0.1-0.1,0.3-0.2,0.4c-0.1-0.1-0.2-0.2-0.3-0.3c-0.1-0.4-0.3-0.5-0.5-0.1s-0.5,0.6-0.9,0.2s-0.9-0.1-1.2,0.2
			c-0.2,0.2-0.4,0.5-0.6,0.8c-0.5,0.8-0.9,1.4-2.1,1c-0.6-0.1-1.1,0.1-1.6,0.4c-0.8,0.5-1.5,0-2.2,0c-0.5,0-0.5-0.5-0.4-0.9
			c0,0-0.1-0.1-0.2-0.1c-1.5-0.8-2.6-2.1-3.3-3.7c-0.1-0.2-0.2-0.5-0.4-0.6c-0.4-0.1-0.9-0.2-1.3-0.2c0.1,0.3,0.2,0.5,0.3,0.8
			c0.1,0.1,0.2,0.2,0.2,0.3c0.1,0.5,0,1-0.4,1.3c-0.4,0.2-0.5-0.3-0.7-0.5c-0.4-0.5-0.8-1.1-1.2-1.6c0,0-0.2,0-0.3,0.1
			s-0.2,0.3-0.3,0.4c-0.5,0.6-0.9,0.6-1.2-0.1c-0.1-0.3,0-0.9-0.7-0.4c-0.3,0.2-0.8-0.3-1.1,0.2c-0.2,0.3-0.4,0.6-0.7,0.8
			c-0.2-0.3-0.4-0.5-0.7-0.8c-0.1-0.1-0.2-0.1-0.3-0.1s-0.1,0.2-0.2,0.3c0,0.3,0,0.7-0.1,1c0,0.1-0.1,0.2-0.2,0.3
			c-0.1-0.1-0.1-0.2-0.2-0.4s0-0.1,0-0.1s0-0.2-0.1-0.3c-0.1,0.1-0.2,0.2-0.2,0.3c-0.1,0.2-0.2,0.5-0.1,0.7c0.2,0.7-0.2,0.9-0.7,1.3
			s-1.2,0.5-1.2,1.3c0,0.1-0.2,0.3-0.4,0.3c-0.7,0.2-1.4,0.8-2.3,0.4c-0.2-0.1-0.5,0-0.7,0c-1.1-0.2-2.1-0.4-3.2-0.8
			c-1.3-0.6-2.3-1.5-2.9-2.8c-0.2-0.4-0.4-0.7-0.8-0.9c-0.5-0.2-1-0.3-1.5-0.3c-0.7-0.1-0.2,0.2-0.1,0.4s-0.2,0.3-0.3,0.3
			c-0.4,0-0.8-0.2-1.1-0.4c-0.5-0.4-1.2-0.6-1.8-0.5c-0.2,0-0.5,0-0.7,0c-0.9-0.2-1.7-0.3-1.9,0.9c-0.8,0.3-0.9,1-1.3,1.7
			c-1.2,2-3.4,3.2-5.8,3c-2.5-0.1-4.7-1.7-5.5-4.1c-0.1-0.6-0.7-1-1.3-0.9c-0.6,0-1.2-0.1-1.8-0.2c-0.3,0-0.6-0.1-0.8,0.1
			c-0.2,0.3-0.4,0.6-0.4,0.9c-0.2-0.3-0.4-0.7-0.6-0.8c-0.4-0.2-1.1-0.4-1.4-0.2c-0.4,0.4-0.7,0.1-1.1,0c-0.9-0.2-1.3-0.2-1.5,0.7
			c-0.3,1-1,1.8-1.9,2.3c-2.5,2.2-6.3,2-8.6-0.4c-0.1-0.1-0.2-0.2-0.3-0.3c-0.5-0.6-0.9-1.3-1.2-2c-0.3-0.6-0.8-0.8-1.3-0.3
			c-0.2,0.3-0.4,0.6-0.6,0.9c-0.2,0.3-0.4,0.6-0.7,0.8c-0.1,0.1-0.3,0-0.4-0.1c0-0.1,0.1-0.2,0.1-0.3c0.1-0.2,0.2-0.3,0.4-0.4
			c-0.2,0-0.5-0.1-0.7,0c-0.5,0.3-1.2,0.2-1.5-0.4c0,0,0-0.1-0.1-0.1c-0.1-0.2-0.3-0.4-0.6-0.4c-0.2,0-0.7,0.2-0.7,0.3
			c0,0.8-0.7,1.2-0.9,1.8c-0.1,0.2-0.3,0.5-0.5,0.7c-0.2-0.2-0.3-0.4-0.4-0.7c-0.2-0.5-0.4-0.8-1-0.5c-0.1,0-0.2,0-0.2,0
			c-0.9-0.5-1.1,0-1.3,0.7c-0.7,0,0.2,1.4-0.9,1.1c-0.1,0.5-0.3,0.8-0.9,0.7c-0.3,0-0.7,0.4-1.2,0.3c-0.2,0-0.5,0.1-0.8,0.2
			c-0.2,0.1-0.4,0.2-0.7,0.2c-0.5,0-1-0.2-1.4-0.2c-1.6-0.2-3-1-4-2.2c-0.8-1-1.3-2.1-2-3.2c-0.1-0.1-0.2-0.2-0.3-0.3
			c0,0.1-0.1,0.2-0.1,0.3c-0.4,0.7-1.2,1.1-2,0.8c-0.5-0.2-0.9-0.6-1.2-1c-0.6-1-0.8-1-1.2-0.8C93.5,1.6,93,2.2,93,3
			c0,0.4-0.4,0.5-0.7,0.2c-0.1-0.1-0.2-0.3-0.3-0.4c-0.2-0.2-0.4-0.5-0.6-0.7C91.3,2.4,91.2,2.7,91,3c-0.1,0.3-0.2,0.6-0.2,0.8l0,0
			C90.9,4,91.1,4.2,91,4.3c-0.2,0.3-0.4,0.5-0.6,0.7c-0.1-0.1-0.1-0.2-0.1-0.3c0-0.1,0-0.2,0-0.3l-2.4,2.4l0,0
			c-0.6,0.2-1.2,0.4-1.8,0.6c-2.6,0.5-5.3-0.7-6.6-3c-0.4-0.8-0.6-1.6-0.9-2.4c-0.2-0.6-0.4-0.7-1-0.5c-0.2,0.1-0.4,0.2-0.5,0.3
			c-0.2,0.3-0.6,0.4-0.9,0.2C76.1,1.9,76,1.9,76,1.8c-0.4-0.4-0.6-0.4-0.7,0.2s-0.4,0.6-0.8,0.3s-0.8-0.5-1.1-0.7
			c-0.1,0-0.2,0-0.3,0c0,0.1,0.1,0.2,0.2,0.3c0.5,0.4,0.8,1.1,0.6,1.8c0,0.4,0,0.9,0,1.3c0,0.2,0,0.4,0,0.6l-0.6-0.1
			c-0.5-0.1-0.5-0.5-0.4-0.9c0.1-1,0.1-1.1-1-1c-0.3,0-0.5-0.1-0.7-0.3S70.7,3,70.5,3.1S70.1,3.4,70,3.6s0.2,0.6-0.2,0.6
			s-0.8,0.5-1,1s-0.2,0.7-0.7,0.7c-0.2,0-0.5,0.2-0.7,0.4c-1.1,0.8-2.4,1.2-3.8,1.1c-1.9-0.1-3.7-1.1-4.8-2.6
			c-0.8-1.2-1.3-2.6-1.3-4c0-0.2,0.1-0.4-0.4-0.4c-1.2,0-2.3-0.2-3.5-0.4c-0.3,0-0.6,0-0.8,0c-0.9,0.1-1.2,0.3-1.3,1.2
			c-0.1,0.6-0.2,0.8-0.8,0.6c-0.4-0.2-0.5,0.2-0.6,0.5S49.8,3,49.4,2.5c-0.3,0.4-1.1,0.2-1.2,0.7C48.1,4,47.5,4.5,47,5
			c-2,2.6-6.8,2.7-9.1,0.2c-0.9-1-1.5-2.2-1.8-3.5c-0.1-0.5-0.4-0.8-0.8-0.6c-0.6,0.1-1.2,0.1-1.8,0c-1.3,0-2.7,0-4-0.1
			c-0.3,0-0.6,0-0.8,0.1c-0.1,0-0.2,0.3-0.2,0.5s0.3,0.5,0.2,0.7c-0.2,0.5-0.4-0.2-0.7,0c-0.1,0.1-0.2,0.2-0.3,0.4
			c-0.1,0.3-0.1,0.6-0.2,0.8c-0.3,1-1,1.9-1.8,2.5c-0.2,0.1-0.3,0.3-0.4,0.5c-0.1,0.4-0.5,0.7-1,0.6h-0.1c-0.5-0.2-0.9,0-1.3,0.1
			c-2.8,0.8-5.8-0.5-7.2-3C15.4,3.6,15.2,3,15,2.5c-0.2-0.6-0.7-0.6-1.2-0.6S13.1,2,13.1,2.5s-0.3,0.3-0.4,0.1S12.3,2,12,2.5
			c-0.1,0-0.2,0-0.3,0c-0.6-0.6-1.2,0-1.9-0.1c0,0.1,0,0.2,0,0.3s0.3,0.2,0.3,0.2C10,3.3,9.8,3.6,9.7,4L9.1,3.3C9,3.2,9,3.1,8.9,3
			C8.4,2.7,7.8,2.5,7.2,2.7C6.7,3,6.7,3.6,6.9,4.1s0.3,1.1,0.5,1.7c0.2,0.5,0.2,1.1,0,1.5c-0.1,0.2,0,0.6,0.1,0.9
			c0.1,0.3,0.1,0.7,0.2,1C7.2,9,6.9,8.9,6.5,8.7C6.4,8.6,6.4,8.5,6.3,8.4c-0.2-0.6-0.5-0.7-0.8,0c0,0.1-0.1,0.2-0.2,0.2
			C5.2,8.5,5.2,8.4,5.1,8.3c0-0.1,0-0.2,0-0.3C5,7.7,5,7.4,5,7.1C4.6,7.2,4.2,7.3,3.9,7.5C3.4,7.7,3.6,8,3.8,8.3
			c0.6,1,0.6,2.2-0.1,3.2c-0.1,0.3-0.1,0.6,0,0.9c0.3,0.6,0.2,1-0.5,1.1c-0.4,0.1-0.4,0.3-0.1,0.4c0.5,0.3,0.5,0.6,0.5,1.1
			c-0.1,1,0.4,2,1.2,2.7C5.3,18,5.7,18.5,6,19c0.3,1.2,0.6,2.3,0.8,3.5c0.1,0.2,0.1,0.5,0,0.6c-0.7,0.4-0.6,1-0.5,1.5
			c0,0.1,0,0.3-0.1,0.3c-0.9,0.2-0.8,1.1-1.3,1.7C4.7,26.9,4.3,27,4,27.2s0.1,0.9-0.5,1c0,0.1-0.1-0.2-0.2-0.2
			c-0.4,0.2-0.8,0.5-1.2,0.8C2,28.9,2,29,2.1,29.1s0.4,0.2,0.5,0.3c0.3,0.3,0.5,1,0.2,1.3s-0.5,0-0.8,0l-0.2-0.1l-0.3-0.4
			c-0.3,0.3-0.6,0.5-0.5,1s0,1.3,0,1.9c0.4,0.1,1,0.3,1.1,0.2c0.4-0.4,0.5-0.1,0.6,0.1c0.1,0.2,0.2,0.4,0.2,0.6
			c-0.2,0.7,0.2,1.2,0.6,1.8c0.3,0.3,0.4,0.8,0.2,1.2s0.1,0.7,0.4,0.9l0.3,0.4c0.6,0.8,1.3,1.6,1.9,2.3c0.9,1.2,1.1,2.7,0.7,4.1
			c-0.4,1.9-1.6,3.5-3.3,4.4c-0.6,0.4-1.3,0.7-2,0.9c-0.8,0-0.8,0.3-0.7,0.8c0.3,1.1,0.3,2.3-0.3,3.3c-0.1,0.2-0.1,0.4-0.1,0.6
			c0.4,0.7,0.2,1.6-0.5,2.1c-0.1,0.1-0.1,0.3,0,0.4c0.7,0.3,1.4,0.6,2,1c0.4,0.2,0.8,0.3,1.1,0.5c3.1,1.5,4.4,5.3,2.9,8.5
			c-0.4,0.7-0.8,1.4-1.4,1.9c-1.2,1-2.7,1.6-4.3,1.6c-0.1,0-0.2,0.1-0.3,0.1c0.1,0.1,0.2,0.1,0.3,0.2c1,0.4,1.4,1,1.1,1.6
			s-0.7,1.1-1.1,1.6l-0.3-1.6c0-0.1,0-0.2-0.1-0.3c0,0.1,0,0.2,0,0.4c0,0.6,0,1.2,0,1.8c0,0.2,0.1,0.4,0.2,0.5
			c0.5,0.3,0.7,1,0.4,1.6c-0.4,0.8-0.3,1.8,0.3,2.4l0.5,0L1,79.1c0.7,0.2,1.4,0.4,2.1,0.7C3.5,80,4,80.2,4.4,80.5
			c1.4,1.2,2.5,2.9,3,4.7c0.2,0.5,0.1,1.2-0.2,1.6c-0.2,0.5-0.4,1-0.5,1.5c-0.3,1.2-1.1,2.2-2.2,2.7c-0.6,0.3-1.3,0.6-2,0.7
			c-1.1,0-2,0.9-2.1,2c-0.1,0.3-0.5,0.4-0.2,0.9c0.5,0.8,1.1,1.5,0.5,2.6c0,0.1,0,0.2,0,0.2c0.1,0.7,0.2,1.4,0.3,2
			c0,0.5,0.4,1,0.9,1c0.6,0.1,1.3,0.3,1.8,0.6c1.4,0.7,2.5,1.7,3.1,3.1c1.3,2.4,0.2,6.1-2,7.7c-1.1,0.8-2.5,1.2-3.8,1.3
			c-0.9,0-0.9,0.1-0.9,1c0,1.5,0,3,0,4.4c0,1-0.1,1.9,1.1,2.6c0.6,0.4,1.3,0.8,2,1.1c3.3,1.1,5,4.7,3.9,7.9
			c-0.3,0.9-0.8,1.6-1.4,2.3c-0.3,0.3-0.5,0.5-0.8,0.8l0.1,0.4l-0.3-0.3c-1.1,0.6-2.3,1-3.6,1.1c-1,0-1,0.1-1,1c0,2.1,0,4.3,0,6.4
			c0,0.9,0,1,1,1c0.7,0,1.5,0.2,2.2,0.1c1-0.1,1,1,1.7,1.2c0.1,0,0.1,0.1,0.2,0.1c1.7,1.2,2.6,3.3,2.3,5.4c-0.2,2.2-1.6,4.2-3.6,5.2
			c-0.7,0.4-1.7,0.4-1.9,1.4c0,0.1-0.4,0.1-0.7,0.2c0-0.2-0.1-0.3-0.1-0.5c0.1-0.3,0-0.4-0.2-0.4c-0.9-0.1-1.1,0-1.1,1c0,2,0,4,0,6
			c0,0.9-0.1,1.2,1.1,1.2c1.7,0,3.3,0.3,4.4,1.8c0.1,0.2,0.3,0.3,0.4,0.4c0.6,0.6,1.1,1.3,1.2,2.2c0.1,0.5,0.2,1.1,0.2,1.6
			c0.2,3.2-2.1,5.9-5.2,6.4c-0.6,0.1-1.2,0-1.8,0.1c-0.2,0-0.3,0.2-0.4,0.4c0,0.2,0.1,0.3,0.2,0.4c0.5,0.2,1.1,0.4,1.6,0.6
			s0.6,0.7,0.1,1l-0.9,0.8l-0.4,0.3c0-0.1,0-0.3,0-0.4c0-0.2,0-0.4,0.1-0.6c0.1-0.2,0.1-0.3,0.2-0.5c-0.2,0.1-0.6,0.2-0.8,0.4
			s-0.2,0.5-0.2,0.8c0,1.6,0,3.1,0,4.7c0,0.2,0,0.4,0.1,0.6c0,0.1,0.1,0.2,0.2,0.2c0-0.1-0.1-0.3,0-0.3s0.2-0.4,0.4-0.4
			s0.6,0.2,0.6,0.3c-0.1,0.8,0.5,0.5,0.8,0.5c0.8-0.1,1.6,0.1,2.3,0.5c0.9,0.6,1.8,1.3,2.4,2.2c0.1,0.2,0.5,0.5,0.6,0.4
			c0.4-0.2,0.4,0.1,0.3,0.3c-0.3,0.5-0.1,0.8,0.4,1.1s0.5,0.8,0.3,1.4c-0.2,0.7-0.4,1.5-0.7,2.2c-0.2,0.6-0.4,1.1-0.7,1.6
			c-1.1,1.8-3.1,2.9-5.2,3c-0.3,0-0.7,0-1,0.1c-0.4,0-0.8,0.4-0.8,0.8v0.1c0,1.9,0,3.8,0,5.7c0,0.6,0.2,0.8,0.8,0.9s1.1,0.1,1.7,0.2
			c3.2,0.4,5.9,4,5.2,7.1c-0.3,1.2-0.8,2.3-1.3,3.4c-0.1,0.1-0.1,0.2-0.2,0.3c-0.6,0.7-1.8,0.6-2.3,1.5c0,0.1-0.2,0-0.3,0
			c-1-0.1-2.1,0-3.1,0.3c-0.2,0.1-0.4,0.3-0.4,0.6c0,2.3,0,4.6,0,6.9c0,0.3,0.2,0.5,0.4,0.6c0.8,0.4,1.7,0.6,2.6,0.6
			c0.7-0.1,1.4,0.2,1.8,0.7c0.2,0.2,0.5,0.4,0.8,0.6c0.4,0.2,0.8,0.5,1.1,0.7c0.6,0.5,1.2,1,0.9,2c-0.1,0.4,0.1,1.3,0.7,1.3
			c1,0.1,0.8,0.6,0.8,1.2c0,0.3,0.2,0.6,0.3,0.9c0.1,0.3,0.2,0.6,0.2,0.9c0,0.1-0.2,0.2-0.3,0.4c-0.1-0.1-0.3-0.2-0.3-0.3
			c-0.2-0.6-0.3-1.2-0.5-1.8c-0.1-0.2-0.3-0.3-0.4-0.4c0,0.2-0.1,0.3-0.2,0.5c-0.5,1-0.9,2-1.4,3c-0.4,0.9-1.2,1.6-2.1,1.9
			c-0.7,0.2-1.3,0.6-1.9,0.9c-0.2,0.1-0.5,0.1-0.7,0.1c-0.9-0.1-0.9-0.1-1.2,0.9c-0.1,0.2-0.1,0.6-0.3,0.7c-0.6,0.2-0.5,0.7-0.4,1
			s0.5,1,0.5,1.4c-0.1,0.6-0.3,1.1-0.5,1.6c-0.3,0.7,0.6,0.8,0.6,1.4s1.1,1.2,1.6,1.2c0.6,0,1.2,0.1,1.8,0.3s1.2,0.3,1.9,0.5
			c0.3,0.6,0.6,1.2,1,1.8c0.7,0.9,1.1,2.1,1.2,3.3c0,0.6,0.1,1.3,0.1,2s0.1,1.4-0.8,1.6c-0.3,0.1-0.5,0.5-0.8,0.8
			c-1.1,1.3-2.6,2.1-4.2,2.3l-1.8,0.2c-0.4,0-0.6,0.2-0.6,0.6c0,1.2,0,2.5,0,3.7c0,0.2,0.1,0.4,0.2,0.5c0.3,0.5,0.8,1-0.1,1.4
			c-0.1,0,0,0.6,0.1,0.9c0.5-0.1,0.3,0.4,0.5,0.5c0.3,0.6,0.9,0.9,1.6,0.7c1.2-0.4,2,0.7,3,0.8c0.8,1.1,1.8,2.2,2.5,3.4
			c0.4,0.5,0.6,1.1,0.6,1.7c-0.2,1.7-0.1,3.6-1.6,4.9c-0.3,0.3-0.6,0.6-0.3,1.1c-0.7-0.4-1.6-0.3-2.2,0.3C3.9,281,3.7,281,3.5,281
			s-0.3,0.1-0.3,0.2c0.1,0.9-0.3,0.5-0.7,0.3c-0.3-0.2-0.7-0.1-0.9,0.2c0,0,0,0,0,0.1c-0.2,0.2-0.3,0.4-0.4,0.6
			c-0.5,1.6-0.9,3.2,0.2,4.7c0.1,0.2,0.2,0.3,0.2,0.5c0.1,0.8,0.7,1,1.3,1.3c0.9,0.3,1.7,0.7,2.4,1.2c0.7,0.6,1.4,1.4,2,2.1
			c0.3,0.4,0.5,0.8,1.1,0.5c0.1-0.1,0.2-0.1,0.3,0c0.6,0.4,1.2,1.1,2.1,0.5c0,0,0.1,0,0.1,0.1c0.6,0.4,0.9,0,1.3-0.3
			s0.4-0.6,0.6-0.9c0.2-0.1,0.4-0.2,0.6-0.2c0.3,0.1,0.6,0.6,0.9,0.6c0.6-0.1,0.1-0.7,0.3-1c0,0,0-0.1,0.1-0.1l0.2-0.2
			c0.1,0.1,0.2,0.1,0.2,0.2c0,0.2,0.1,0.5,0.1,0.7c0.3,0.8,0.4,1.6,1.2,2c0.1-0.2,0.1-0.5,0.2-0.5c0.8-0.2,1.1-0.9,1.6-1.4
			c2.4-2.5,6.4-2.5,8.9-0.1c0.4,0.4,0.7,0.8,1,1.2c0.3,0.4,0.5,0.9,0.7,1.3c0.6,0.8,1.7,1.2,2.7,0.8c0.3-0.1,0.3-0.3,0.7-0.1
			c0.4,0.1,0.8,0.2,1.2,0.2c0.2,0,0.5,0,0.7,0.1c0.7,0.2,1.4,0.4,2.1,0.5c0.5,0.1,0.9,0,1-0.7c0.4-1.9,1.6-3.6,3.4-4.4
			c0.3-0.1,0.6-0.3,0.5-0.7c0-0.1,0.5-0.3,0.5-0.3c0.7,0.5,1.3,0.3,2,0.2c0.2,0,0.5,0.1,0.7,0.2c1,0.5,2,0.9,3.1,1.2
			c0.9,0.2,1.6,0.2,1.5,1.4c0,0.1,0.2,0.3,0.3,0.5s0.3,0.4,0.3,0.6c-0.1,0.7,0.4,0.8,0.9,0.8c1.2,0,2.4,0,3.5-0.1
			c0.4,0,0.8-0.2,1.1-0.5s0.6-0.5,0.9,0c0.2,0.3,0.3,0.3,0.6,0.2c0.3,0,0.7,0,1,0c1.4,0.4,1.5,0.4,2.2-0.8c2-3.4,6.6-4,9.2-1.8
			c0.3,0.2,0.6,0.4,0.9,0.7c0.7,0.6,1.2,1.2,1.7,2c0.2,0.6,0.6,0.7,1,0.7c0.2,0,0.5,0,0.7,0.1c1.6,0.6,3.2,0.3,4.9,0.2
			c1.2,0,1.6-0.6,2-1.6c1-3.2,4.4-5.1,7.7-4.1c0.8,0.3,1.6,0.7,2.2,1.3c0.9,0.7,1.5,1.7,1.9,2.7c0.1,0.4,0.3,0.8,0.8,0.8
			s0.8-0.4,0.9-0.8c0-0.1,0-0.3,0.1-0.3c0.2-0.1,0.5-0.2,0.7-0.2c-0.1,0.3-0.2,0.7-0.3,1c0,0.1,0,0.2,0.1,0.2s0.2,0,0.2-0.1
			c0.1-0.1,0.2-0.3,0.3-0.4c0.1,0,0.2,0,0.3,0c-0.3,1,0.6,0.6,1,0.8c0.2,0.1,0.4,0,0.4-0.4c-0.1-0.5,0.2-1.1,0.8-1.2
			c0.1,0,0.2,0,0.2,0c0.3,0,0.6-0.1,0.8-0.1c0.9-0.3,0.9-0.3,1.2,0.5c0.1,0.4,0.2,0.7,0.2,1.1c0,0.1,0.1,0.2,0.2,0.2
			c0-0.7,0.7,0.2,0.8-0.3c0.1-0.3,0.2-0.6,0.4-0.9c1-2,2.9-3.3,5.2-3.5c2.4-0.3,4.6,0.9,5.7,3c0.4,0.9,1.3,1.5,2.2,1.5
			c0.2,0,0.5,0,0.7,0c2,0,3.9,0,5.9,0.1c0.5,0.1,1.1-0.2,1.2-0.7v-0.1c1.4-3.2,5.1-4.7,8.3-3.3c1.1,0.5,2,1.2,2.7,2.1
			c0.1,0.2,0.2,0.5,0.4,0.6c0.6,0.2,0.7,0.7,1,1.1c0.4,0.9,1.3,1.5,2.3,1.6c1.4,0,2.9,0.1,4.3,0.2c1,0,1.1-0.1,1.4-1.1
			c0.3-1.5,1.1-2.9,2.3-3.8c0.6-0.6,1.3-1,2-1.4c0.8-0.2,1.7-0.2,2.6,0c1.7,0.1,3.2,0.9,4.3,2.2c1,1.1,1.6,2.5,1.7,4.1
			c0,0.2,0.1,0.4,0.3,0.5c0.1,0,0.3-0.1,0.4-0.2s0.2-0.3,0.4-0.1c1,0.7,1.3,0.8,2.2,0c0.4-0.4,0.7-0.5,1.1-0.1
			c0.5,0.5,1.2,0.7,1.9,0.7c0.4,0,0.8,0,0.8-0.5s0.2-0.4,0.5-0.2l0.5,0.4l0.3,0.2c0-0.1,0.1-0.3,0.1-0.4c0-0.2,0-0.3,0-0.5
			c0-3.5,2.8-6.4,6.3-6.4c0.3,0,0.6,0,0.9,0c0.3,0,0.7,0.2,1,0.1c0.6-0.4,0.9-0.2,1.2,0.4c0.1,0.1,0.2,0.3,0.3,0.3
			c1,0.6,1.8,1.5,2.3,2.5c0.2,0.4,0.5,0.6,1,0.4c0.2-0.1,0.4-0.1,0.6-0.1c0,0.2,0.1,0.5,0.1,0.7c0,0.1-0.1,0.3-0.2,0.4
			c-0.2,0.4,0,0.8,0.3,1c0.2,0.3,0.7,0.4,1,0.2c0.2-0.1,0.3-0.2,0.5-0.2c0.3,0.7,0.7,0.1,1.1,0c0.3-0.1,0.6-0.1,0.9,0
			c0.5,0.4,1.1,0.3,1.6,0c0.5-0.4,0.9-0.3,1.2,0.3c0.1,0.1,0.2,0.2,0.3,0.2c0.4-0.4,0.8-0.9,1.1-1.4c0.5-1.2,1.2-2.3,2.2-3.2
			c0.7-0.5,1.2-1.4,1.9-1.6c0.9-0.1,1.8,0.1,2.6,0.4c2.3,0.5,4.2,1.5,5.1,3.9c0.1,0.3,0.3,0.6,0.5,0.9s0.4,0.3,0.6,0
			c0.1-0.1,0.2-0.1,0.3-0.2c0.1,0.1,0.1,0.2,0.1,0.3c0,1.5,0.5,1.9,1.9,1.8c0.5-0.1,1.1,0.1,1.5,0.4c0.4,0.2,0.8,0.2,1.1,0.2
			c0.5,0,0.3-0.5,0.4-0.8c0-0.2,0.1-0.3,0.2-0.5c0.2-0.4,0.5-0.6,0.9-0.2s0.6,0.2,0.9,0c0.4-0.3,0.7-0.7,0.7-1.2
			c0.6-2.9,3.1-5,6.1-5c0.8-0.1,1.6,0,2.4,0.3c0.9,0.4,1.9,0.6,2.4,1.7c0.1,0.2,0.4,0.4,0.6,0.4c0.4,0.1,0.6,0.2,0.5,0.6
			c0,0.2,0,0.3,0.1,0.5c0,0.1,0.2,0.2,0.2,0.3c0.1-0.1,0.2-0.2,0.2-0.3c0-0.1,0.1-0.3,0.1-0.5c0.2,0.1,0.3,0.2,0.5,0.3
			c1.2,1.3,2.3,2.6,4.3,2.3c0.1,0,0.2,0.1,0.3,0.1c0.7,0.2,1.3,0.3,1.8-0.5c0.3-0.5,0.8-0.3,0.9,0.3c0,0.1,0.1,0.2,0.1,0.4
			c0.1-0.1,0.2-0.2,0.2-0.4c0.4-2.9,2.6-5.1,5.4-5.6c0.6-0.2,1.2-0.2,1.8,0c1.8,0.4,3.3,1.5,4.5,2.9l0.1-0.3
			c0.1,0.1,0.2,0.3,0.3,0.5c0.7,0.4,0.8,1,0.9,1.6s1.6,1.4,2.1,1s0.6-0.5,0.8,0.1c0.1,0.2,0.2,0.4,0.4,0.6c0.5,0.4,1.1,0.8,1.6,1.1
			c0.1,0,0.2,0.1,0.3,0.1c0-0.1,0.1-0.2,0.1-0.3c-0.1-0.4-0.2-0.8-0.3-1.2c0-0.1,0.1-0.2,0.1-0.3c0,0.1,0.1,0.1,0.2,0.2
			s0.1,0.3,0.2,0.5c0.2,1,1.2,1.6,2.2,1.3c0.1,0,0.1,0,0.2-0.1c0.2-0.1,0.3-0.3,0.4-0.5c0.1-0.9-0.2-1.9-0.7-2.7
			c-0.9-1.3-1.5-2.9-1.5-4.5c0-0.3,0.1-0.5,0.3-0.7c0.1-0.1,0.4,0.1,0.6,0.2c0.9,0.6,1.7,1.5,2.2,2.5c0.2,0.4,0.3,0.4,0.6,0.1
			c1-1.1,2.2-1.8,3.7-2.1c0.4,0,0.8-0.4,0.8-0.9c0,0,0,0,0-0.1c0-2.3,0-4.5,0-6.8c0-0.4-0.3-0.8-0.7-0.8c-0.3-0.1-0.6-0.2-0.9-0.3
			c-3.2-1.2-4.9-4.7-3.8-8c0.7-2,2.3-3.5,4.4-4c1-0.3,1.1-0.3,1.1-1.4c0-1.8,0-3.6,0-5.4c0-1.6,0-1.6-1.5-2
			c-3.3-0.9-5.2-4.4-4.3-7.7c0.1-0.4,0.3-0.8,0.4-1.1c0.9-1.7,2.5-2.9,4.4-3.3c0.9-0.2,0.9-0.2,0.9-1.1c0-2.2,0-4.4,0-6.5
			C253.4,239.6,253.1,239.3,252.5,239.1z M251.1,197.7L251.1,197.7L251.1,197.7L251.1,197.7z M250.3,134.3l0.1,0.2l-0.2,0.1
			c0-0.1-0.1-0.1-0.1-0.2S250.2,134.3,250.3,134.3L250.3,134.3z M250.1,91.5L250.1,91.5C250.2,91.6,250.1,91.6,250.1,91.5
			C250.1,91.6,250.1,91.6,250.1,91.5L250.1,91.5z M249.7,95L249.7,95L249.7,95L249.7,95z M248.9,94.1c0.1,0.2,0.3,0.4,0.3,0.6
			c-0.1,0.3-0.2,0.7-0.4,1l-0.2-1.1L248.9,94.1z M249,48.1c0,0.1,0,0.1,0.1,0.2c0,0.1,0,0.2,0,0.3c-0.1-0.1-0.1-0.2-0.1-0.3
			C249,48.3,249,48.2,249,48.1L249,48.1z M249.6,34.3l0.1,0.1c-0.1,0-0.1,0.1-0.2,0.1l-0.1-0.1C249.5,34.4,249.5,34.4,249.6,34.3
			L249.6,34.3z M5,15.4c0,0-0.1,0-0.2,0l0.1-0.2L5,15.4C5.1,15.2,5.1,15.3,5,15.4z M1.3,31.5c-0.2-0.4,0.1-0.6,0.4-0.9
			c-0.1,0.3-0.2,0.6-0.2,0.9C1.4,31.5,1.3,31.5,1.3,31.5z M3.4,29.1l0.3-0.7v0.1c0,0.2,0,0.5,0,0.7L3.4,29.1z M3.9,34.3
			c0-0.1-0.1-0.1-0.1-0.2h0.1C4,34.2,4,34.2,3.9,34.3L3.9,34.3z M4,32.7l-0.5-0.5L3.8,32c0.1,0.1,0.2,0.3,0.3,0.4
			C4.2,32.5,4.1,32.6,4,32.7z M0.3,155.9L0.3,155.9c0.1-0.1,0.1,0.1,0.1,0.2l-0.1,0.1C0.3,156.1,11.5,156,0.3,155.9z M0.4,158.2
			c0-0.1-0.1-0.2-0.1-0.3c0.1-0.2,0.2-0.3,0.3-0.4c0.1,0.2,0.2,0.3,0.2,0.4C0.7,158,0.6,158.1,0.4,158.2L0.4,158.2z M6.2,184.4
			c-0.1,0-0.1-0.1-0.2-0.1l0.2-0.1C6.3,184.2,6.3,184.3,6.2,184.4C6.3,184.4,6.3,184.4,6.2,184.4L6.2,184.4z M7.6,10.9
			c0-0.1-0.1-0.1-0.1-0.2s0.1-0.1,0.2-0.1l0.1,0.2L7.6,10.9z M7.8,107.7L7.8,107.7C7.7,107.6,7.7,107.6,7.8,107.7L7.8,107.7
			C7.8,107.6,7.8,107.6,7.8,107.7z M7.9,169.1L7.9,169.1C7.9,168.9,8,169,7.9,169.1C8,169,8,169,7.9,169.1
			C8,169.1,7.9,169.1,7.9,169.1z M8.1,104.6L8,104.4c0,0,0,0,0.1-0.1l0.1,0.2L8.1,104.6z M7.8,248.1c0-0.1-0.1-0.1-0.1-0.2
			c0.1-0.1,0.1-0.2,0.2-0.2c0,0.1,0.1,0.2,0.1,0.2L7.8,248.1z M0.8,261.8c-0.1-0.2-0.3-0.4-0.5-0.7c0,0,0.1-0.1,0.1-0.2l0.5,0.6
			L0.8,261.8z M6.2,284.1c-0.1,0-0.1-0.1-0.2-0.1l0.1-0.1C6.2,283.9,6.2,284,6.2,284.1C6.3,284.1,6.2,284.1,6.2,284.1z M6.5,281
			c-0.1-0.1-0.1-0.2-0.1-0.3c0-0.1,0-0.2,0-0.3c0.1,0.1,0.2,0.1,0.2,0.2C6.6,280.8,6.6,280.9,6.5,281z M6.8,282.5L6.8,282.5
			L6.8,282.5L6.8,282.5z M8.4,254.2L8.4,254.2L8.4,254.2L8.4,254.2z M8.4,250c-0.1-0.1-0.2-0.2-0.2-0.4c0-0.1,0.1-0.3,0.2-0.4
			c0.1,0,0.3,0.1,0.5,0.2L8.4,250z M12.4,194.9L12.4,194.9l0.1-0.2l0.1,0.1C12.4,194.9,12.4,194.9,12.4,194.9L12.4,194.9z M13.5,6
			C13.5,6,13.4,5.9,13.5,6c0-0.1,0-0.2,0.1-0.2L13.7,6C13.6,6,13.5,6,13.5,6z M14.6,290.5v-0.1V290.5L14.6,290.5z M15.6,80.5
			c0-0.1-0.1-0.2-0.1-0.2c0.1-0.1,0.2-0.1,0.3-0.2l0.1,0.2L15.6,80.5z M17.8,119.7c0.1,0.2,0.1,0.3,0.1,0.5c0,0.1-0.2,0.2-0.3,0.3
			c-0.1-0.1-0.1-0.3-0.1-0.4S17.6,119.9,17.8,119.7L17.8,119.7z M18.3,278.5c-0.6,0-1-0.4-1.1-1c0-0.2,0.2-0.3,0.4-0.4
			c0.6,0.1,1,0.6,1,1.2C18.5,278.4,18.4,278.4,18.3,278.5L18.3,278.5z M18.7,211.2l-0.1-0.1l0.1-0.1C18.7,211,18.8,211.1,18.7,211.2
			C18.8,211.2,18.7,211.2,18.7,211.2L18.7,211.2z M20.1,254.9C20.1,254.9,20,254.9,20.1,254.9c0-0.1,0-0.2,0-0.3v0.1
			C20.1,254.8,20.1,254.9,20.1,254.9L20.1,254.9z M20.8,153.2L20.8,153.2L20.8,153.2L20.8,153.2z M21.2,61.2
			C21.2,61.2,21.1,61.2,21.2,61.2C21.1,61.2,21.1,61.1,21.2,61.2C21.1,61.1,21.2,61.1,21.2,61.2C21.2,61.1,21.2,61.2,21.2,61.2
			L21.2,61.2z M22.8,263.3L22.8,263.3C22.7,263.3,22.7,263.3,22.8,263.3L22.8,263.3L22.8,263.3z M23.3,48.9l-0.2-0.2
			c0,0,0.1-0.1,0.2-0.1s0.1,0.1,0.2,0.1L23.3,48.9z M23.9,120.3C23.9,120.3,23.8,120.2,23.9,120.3c0-0.1,0-0.2,0.1-0.2l0.1,0.1
			L23.9,120.3z M24.9,289.4L24.9,289.4L24.9,289.4L24.9,289.4z M26.5,11.5c-0.1-0.1-0.2-0.1-0.2-0.2s0-0.2,0.1-0.3l0.4,0.3
			L26.5,11.5z M27.3,100.9L27.3,100.9h0.1H27.3z M28,30.7c-0.1-0.1-0.1-0.1-0.1-0.2s0.1-0.1,0.1-0.2c0,0.1,0.1,0.1,0.1,0.2
			C28,30.5,28,30.6,28,30.7z M28,12.4l-0.1-0.3c0.1,0,0.2-0.1,0.2,0c0.1,0.1,0.1,0.1,0.1,0.2C28.2,12.3,28,12.4,28,12.4z M29,13.4
			C29,13.4,28.9,13.4,29,13.4c0-0.1,0-0.2,0-0.2l0.1,0.1L29,13.4z M29.2,169.5L29.2,169.5C29.1,169.5,29.1,169.5,29.2,169.5
			L29.2,169.5L29.2,169.5L29.2,169.5z M30.7,11.8c0,0.1,0,0.1,0,0.2c0,0,0,0-0.1,0.1C30.6,12,30.6,11.9,30.7,11.8
			C30.6,11.8,30.6,11.8,30.7,11.8z M30.3,21.8L30.3,21.8L30.3,21.8L30.3,21.8z M30.8,22.6c0,0-0.1,0-0.2,0l0.2-0.3
			c0.1,0.1,0.2,0.1,0.2,0.2C30.9,22.5,30.8,22.6,30.8,22.6L30.8,22.6z M34,8.2c0.1,0.1,0.2,0.1,0.2,0.1c0,0.1,0,0.3-0.1,0.4
			c-0.1-0.1-0.2-0.2-0.2-0.3S33.9,8.3,34,8.2z M33.6,9.3c0.1,0,0.1,0,0.2,0c0,0,0.1,0.1,0.1,0.2h-0.3C33.6,9.4,33.5,9.3,33.6,9.3
			L33.6,9.3z M33.4,81.6L33.4,81.6c0-0.2,0-0.2,0-0.3l0.1,0.2L33.4,81.6z M34.4,11.2c-0.2-0.3-0.4-0.5-0.5-0.8
			c0-0.1,0.1-0.2,0.1-0.3c0.1,0.1,0.2,0.1,0.3,0.2c0.1,0.3,0.2,0.5,0.3,0.8C34.5,11.1,34.5,11.1,34.4,11.2L34.4,11.2z M36.7,288.1
			L36.7,288.1C36.6,288.1,36.6,288,36.7,288.1L36.7,288.1C36.7,288,36.7,288.1,36.7,288.1z M39.1,165.3L39.1,165.3v0.2V165.3
			L39.1,165.3z M38.5,241.1v0.1h-0.1L38.5,241.1z M38.9,291c-0.3-0.2-0.6-0.4-0.8-0.6c0,0,0.1-0.2,0.1-0.3l1.2,0.7
			C39.1,290.9,38.9,291,38.9,291z M40.5,228.7v-0.1h0.1C40.6,228.6,40.6,228.7,40.5,228.7C40.6,228.7,40.6,228.7,40.5,228.7
			L40.5,228.7z M40.6,261.7L40.6,261.7L40.6,261.7L40.6,261.7z M41.4,13C41.4,13,41.3,13,41.4,13C41.3,13,41.3,12.9,41.4,13L41.4,13
			C41.4,12.9,41.4,12.9,41.4,13L41.4,13z M42.5,262.4L42.5,262.4L42.5,262.4L42.5,262.4z M43.8,150.4l0.1-0.1L43.8,150.4L43.8,150.4
			z M44,36.9l-0.2-0.1c0,0,0.1-0.1,0.1-0.2s0.1,0,0.1,0C44,36.8,44,36.8,44,36.9z M44.2,156.1l-0.1-0.1v-0.1l0.1,0.1V156.1z
			 M44.8,280.7v-0.1h0.1C44.9,280.6,44.9,280.7,44.8,280.7L44.8,280.7z M46.1,138C46.1,138,46.1,137.9,46.1,138
			C46.1,137.9,46.1,137.9,46.1,138C46.2,137.9,46.1,137.9,46.1,138S46.1,138,46.1,138z M46.4,251L46.4,251L46.4,251L46.4,251z
			 M46.6,209.6c0-0.1,0-0.1,0-0.2s0.1-0.1,0.1,0c0.1,0,0.1,0.1,0.1,0.2H46.6z M47.8,64.4L47.8,64.4C47.7,64.4,47.7,64.4,47.8,64.4
			L47.8,64.4L47.8,64.4z M49.7,200.7L49.7,200.7l-0.1-0.1C49.6,200.6,49.7,200.6,49.7,200.7L49.7,200.7L49.7,200.7z M50.1,190v-0.1
			h0.1L50.1,190z M51.3,47.2L51.3,47.2l0.1-0.2c0,0,0,0,0.1,0.1L51.3,47.2z M51.9,118.9C51.9,118.9,51.9,118.8,51.9,118.9
			c0-0.1,0-0.2,0-0.2V118.9L51.9,118.9z M52.9,256.9c0-0.2,0.1-0.4,0.1-0.6c0,0.2,0.1,0.4,0.1,0.6l-0.1,0.5
			C53,257.2,53,257,52.9,256.9L52.9,256.9z M53.2,286.5C53.2,286.5,53.1,286.5,53.2,286.5c-0.1-0.1-0.1-0.1-0.1-0.1h0.1
			C53.2,286.4,53.2,286.4,53.2,286.5L53.2,286.5z M55,109.8L55,109.8l0.2-0.1v0.1H55z M55.4,99.2C55.4,99.2,55.4,99.1,55.4,99.2
			C55.4,99,55.5,99.1,55.4,99.2C55.5,99.1,55.5,99.1,55.4,99.2C55.5,99.2,55.4,99.2,55.4,99.2L55.4,99.2z M56,290.8
			C56,290.8,55.9,290.8,56,290.8C55.9,290.8,55.9,290.8,56,290.8C55.9,290.7,56,290.7,56,290.8C56,290.7,55.9,290.8,56,290.8
			L56,290.8z M56.2,232L56.2,232L56.2,232L56.2,232z M57.2,1.7V1.6h0.1L57.2,1.7z M58,6.4C58,6.4,57.9,6.3,58,6.4c0-0.2,0-0.2,0-0.3
			l0.1,0.1C58,6.2,58,6.3,58,6.4z M61.3,140.9v0.1h-0.1L61.3,140.9z M60.1,283.1l-0.1-0.2h0.1C60.1,283,60.2,283,60.1,283.1
			L60.1,283.1z M61.1,289.4c-0.1,0.1-0.3,0.2-0.5,0.1s-0.3-0.3-0.3-0.5c0-0.3,0.1-0.6,0.2-0.8c0.1-0.2,0.2-0.5,0.3-0.7
			c0.2,0.2,0.4,0.4,0.5,0.6s0.1,0.4,0.2,0.5C61.4,288.9,61.2,289.2,61.1,289.4L61.1,289.4z M66.2,282.7L66.2,282.7
			C66.1,282.7,66.2,282.6,66.2,282.7C66.2,282.6,66.2,282.6,66.2,282.7C66.3,282.6,66.3,282.7,66.2,282.7L66.2,282.7z M69,287.2
			c-0.1-0.1-0.2-0.2-0.2-0.3s0.1-0.2,0.1-0.3l0.3,0.3L69,287.2z M69.1,233.7L69.1,233.7l0.1-0.1L69.1,233.7z M69.5,270.1l-0.2-0.2
			l0.3-0.1c0,0.1,0.1,0.1,0.1,0.2S69.6,270,69.5,270.1L69.5,270.1z M70.3,153.8L70.3,153.8c0-0.1,0-0.2,0.1-0.2l0.1,0.1L70.3,153.8z
			 M74.1,216.4c0,0,0-0.1,0.1-0.1L74.1,216.4L74.1,216.4z M74.8,179.2l0.1-0.2L74.8,179.2L74.8,179.2z M75,284.1
			c0-0.1-0.1-0.3-0.1-0.4s0.2-0.1,0.3-0.2l0.1,0.4L75,284.1z M75.7,211.5C75.7,211.5,75.6,211.5,75.7,211.5
			C75.6,211.5,75.6,211.4,75.7,211.5C75.6,211.4,75.7,211.4,75.7,211.5C75.7,211.4,75.7,211.4,75.7,211.5L75.7,211.5z M76.8,21.5
			L76.8,21.5L76.8,21.5L76.8,21.5z M77.3,58L77.3,58L77.3,58L77.3,58z M79.3,157.3L79.3,157.3C79.3,157.2,79.3,157.2,79.3,157.3
			C79.4,157.2,79.4,157.3,79.3,157.3C79.4,157.4,79.3,157.3,79.3,157.3L79.3,157.3z M79.4,45.6L79.4,45.6c-0.1-0.1-0.1-0.1-0.1-0.2
			L79.4,45.6C79.4,45.5,79.4,45.5,79.4,45.6L79.4,45.6z M80,81.8h-0.2c0-0.1,0-0.2,0-0.3s0.2,0,0.2,0.1S80,81.8,80,81.8z
			 M83.1,108.3C83.1,108.3,83,108.2,83.1,108.3l0.1-0.2l0.1,0.2H83.1z M84.2,60C84.2,60,84.2,59.9,84.2,60
			C84.2,59.9,84.2,59.9,84.2,60C84.3,59.9,84.3,60,84.2,60C84.3,60,84.2,60,84.2,60z M86.1,117.7L86.1,117.7L86.1,117.7L86.1,117.7z
			 M87.1,118.8L87.1,118.8L87.1,118.8L87.1,118.8z M88,6.9c0-0.1,0-0.1,0-0.2l0.2,0.2C88.2,6.9,88.1,6.9,88,6.9z M90,176.5
			c-0.1-0.2-0.1-0.4-0.2-0.6c0-0.1,0.1-0.1,0.2-0.2l0.2,0.4L90,176.5z M92.4,249.5c0-0.1,0-0.1-0.1-0.2c0-0.1,0-0.1,0.1-0.2l0.1,0.2
			L92.4,249.5z M94.5,293.1c0,0-0.1,0.1-0.2,0.1c0-0.1,0-0.1,0-0.2c0.1-0.1,0.1-0.2,0.2-0.3c0.1,0,0.2,0.1,0.2,0.1
			C94.6,292.9,94.6,293,94.5,293.1z M96,157.5l0.1,0.1l-0.2,0.1l-0.1-0.1C95.9,157.6,96,157.5,96,157.5z M95.4,230.1L95.4,230.1
			L95.4,230.1L95.4,230.1z M95.7,139.1L95.7,139.1c-0.1-0.1-0.1-0.1-0.1-0.2S95.7,138.9,95.7,139.1
			C95.7,139.1,95.7,139.1,95.7,139.1L95.7,139.1z M95.9,293.3c0-0.1-0.1-0.1-0.1-0.2c0.1-0.3,0.2-0.5,0.3-0.8l0.2,0.4L95.9,293.3z
			 M101.9,14.2L101.9,14.2L101.9,14.2L101.9,14.2z M101.9,182.4v0.1h-0.1L101.9,182.4z M102.2,278.2c0,0.1-0.2,0.1-0.2,0.2
			c-0.1-0.1-0.1-0.3-0.1-0.4s0.1-0.1,0.3-0.3C102.1,277.8,102.2,278,102.2,278.2L102.2,278.2z M102.6,179.3c0-0.1,0.1-0.1,0.1-0.2
			c0.1,0.1,0.1,0.2,0.2,0.2c0,0-0.1,0.1-0.1,0.2C102.7,179.5,102.6,179.4,102.6,179.3L102.6,179.3z M103,243.5l-0.2-0.5
			c0.1-0.3,0.2-0.5,0.4-0.8c0,0.3,0,0.6,0,0.9C103.1,243.2,103.1,243.4,103,243.5L103,243.5z M103.2,176
			C103.2,176,103.2,175.9,103.2,176L103.2,176C103.3,176,103.2,176,103.2,176L103.2,176z M103.6,209.9v-0.2h0.1
			C103.7,209.8,103.7,209.8,103.6,209.9L103.6,209.9z M105.8,197.3c-0.1,0-0.1-0.1,0-0.2l0,0l0.2,0.1L105.8,197.3z M107.1,79.7
			C107.1,79.7,107.1,79.6,107.1,79.7h0.2l-0.1,0.2C107.2,79.8,107.1,79.8,107.1,79.7L107.1,79.7z M107.4,261
			C107.4,261,107.3,261,107.4,261C107.3,261,107.3,260.9,107.4,261L107.4,261C107.4,260.9,107.4,261,107.4,261z M107.3,187.3
			c0-0.1-0.1-0.2-0.1-0.3c0,0,0.1-0.1,0.2-0.1c0,0.1,0.1,0.2,0.1,0.3C107.5,187.2,107.4,187.2,107.3,187.3L107.3,187.3z
			 M107.6,123.8L107.6,123.8L107.6,123.8C107.5,123.8,107.6,123.8,107.6,123.8C107.6,123.9,107.6,123.8,107.6,123.8z M108.6,227.3
			L108.6,227.3C108.5,227.3,108.5,227.2,108.6,227.3C108.5,227.2,108.5,227.2,108.6,227.3C108.7,227.2,108.7,227.3,108.6,227.3
			L108.6,227.3z M110.8,5.1L110.6,5L110.8,5.1C110.9,5,110.8,5.1,110.8,5.1z M111.1,106.6L111.1,106.6L111.1,106.6L111.1,106.6
			C111.2,106.6,111.1,106.6,111.1,106.6z M111.5,54.4L111.5,54.4L111.5,54.4z M113.2,36.4C113.2,36.4,113.2,36.3,113.2,36.4
			C113.2,36.3,113.3,36.3,113.2,36.4C113.3,36.3,113.3,36.3,113.2,36.4C113.3,36.5,113.2,36.4,113.2,36.4z M113.5,69.5L113.5,69.5
			C113.4,69.5,113.4,69.4,113.5,69.5L113.5,69.5C113.5,69.4,113.5,69.4,113.5,69.5z M113.8,240L113.8,240L113.8,240L113.8,240z
			 M114,136.6L114,136.6c-0.1-0.1-0.1-0.1-0.1-0.2L114,136.6L114,136.6z M115.2,70.2L115.2,70.2l-0.1-0.2L115.2,70.2
			C115.2,70.1,115.2,70.1,115.2,70.2z M116.3,275L116.3,275L116.3,275C116.2,275,116.2,275,116.3,275L116.3,275z M117.3,7.3
			L117.3,7.3L117.3,7.3L117.3,7.3z M119.1,15.1L119.1,15.1L119.1,15.1L119.1,15.1z M119.9,257.6h-0.2v-0.1h0.2V257.6z M120.1,6
			L120.1,6L120.1,6L120.1,6z M121.7,184.1L121.7,184.1c-0.1,0-0.1-0.1-0.1-0.1S121.7,184,121.7,184.1L121.7,184.1L121.7,184.1z
			 M130.1,191C130.1,191,130,191,130.1,191c-0.1,0-0.1-0.1-0.1-0.1S130.1,190.9,130.1,191L130.1,191L130.1,191z M131.2,48.1
			L131.2,48.1C131.2,48,131.3,48.1,131.2,48.1C131.3,48.1,131.3,48.1,131.2,48.1C131.3,48.2,131.3,48.2,131.2,48.1L131.2,48.1z
			 M134.8,3.5L134.8,3.5L134.8,3.5L134.8,3.5z M139.5,251.8L139.5,251.8L139.5,251.8L139.5,251.8z M136.4,218.7L136.4,218.7
			L136.4,218.7C136.5,218.8,136.4,218.8,136.4,218.7C136.4,218.8,136.4,218.8,136.4,218.7L136.4,218.7z M135.9,231.5L135.9,231.5
			C136,231.5,136,231.6,135.9,231.5C135.9,231.6,136,231.6,135.9,231.5C135.8,231.6,135.9,231.6,135.9,231.5L135.9,231.5z
			 M135.5,99.9c0,0.1,0.1,0.2,0.1,0.3l-0.1,0.1c-0.1-0.1-0.1-0.2-0.1-0.3C135.3,100,135.4,99.9,135.5,99.9z M135.6,256
			c-0.1-0.2-0.2-0.4-0.2-0.6c0,0,0.1-0.1,0.2-0.1c0.1,0.2,0.1,0.5,0.2,0.7C135.8,255.9,135.7,256,135.6,256z M135.7,253.5
			c0-0.1-0.1-0.3-0.1-0.4l0.1-0.1c-0.1-0.2-0.2-0.4-0.3-0.6c-0.2-0.3-0.3-0.5-0.5-0.8c-0.1-0.3-0.1-0.5-0.1-0.8
			c0.3,0,0.7-0.2,0.9-0.1c0.5,0.2,1,0.6,0.9,1.2C136.6,252.5,136.3,253.1,135.7,253.5C135.9,253.6,135.7,253.6,135.7,253.5
			L135.7,253.5z M137.5,255.9c-0.2,0-0.7,0-0.7-0.2c-0.2-0.4-0.2-0.9-0.7-1.1c0.1-0.1,0.1-0.4,0.3-0.4s0.4-0.1,0.5,0
			c0.3,0.4,0.6,0.8,0.9,1.2c0,0.1,0.1,0.2,0.1,0.3C137.8,255.8,137.6,256,137.5,255.9L137.5,255.9z M139.6,256.3
			c-0.2-0.1-0.4-0.1-0.5-0.3c-0.3-0.5-0.6-1-1-1.5l0,0c-0.1,0-0.2,0-0.3-0.1s-0.2-0.3-0.2-0.5c0-0.1,0.1-0.1,0.2-0.2
			c0.1,0.1,0.2,0.3,0.3,0.4c0,0.1,0,0.2,0,0.3l0,0l0,0c0.7,0,1.4,0.5,1.6,1.2C139.8,255.9,139.7,256.1,139.6,256.3L139.6,256.3z
			 M140.5,138.1c-0.1-0.1-0.1-0.2-0.2-0.2s0.1-0.1,0.2-0.1c0.1,0.1,0.2,0.1,0.2,0.2C140.7,138,140.6,138,140.5,138.1L140.5,138.1z
			 M141.9,128.2L141.9,128.2C141.8,128.2,141.8,128.1,141.9,128.2C141.8,128.1,141.9,128.1,141.9,128.2
			C141.9,128.1,141.9,128.2,141.9,128.2L141.9,128.2z M143.3,157.7c0-0.1,0-0.1,0-0.2h0.1c0,0.1,0.1,0.1,0.1,0.2H143.3z
			 M144.9,163.8L144.9,163.8L144.9,163.8L144.9,163.8z M149.7,83.1L149.7,83.1L149.7,83.1C149.8,83,149.8,83.1,149.7,83.1
			L149.7,83.1z M153.3,245.7c-0.1-0.1-0.1-0.2-0.1-0.3l0.2-0.1c0.1,0.1,0.1,0.2,0.2,0.3L153.3,245.7z M153.7,232.9L153.7,232.9
			l0.1-0.1L153.7,232.9z M154.2,115.1L154.2,115.1C154.1,115.1,154.1,115.1,154.2,115.1C154.1,115.1,154.2,115.1,154.2,115.1
			S154.2,115.2,154.2,115.1L154.2,115.1z M154.9,93.6L154.9,93.6C155,93.6,155,93.7,154.9,93.6L154.9,93.6
			C154.9,93.7,154.9,93.6,154.9,93.6L154.9,93.6z M155.2,289.5c-0.1-0.1-0.3-0.3-0.3-0.4s0.1-0.3,0.2-0.6c0.1,0.2,0.3,0.4,0.3,0.6
			C155.4,289.2,155.2,289.4,155.2,289.5L155.2,289.5z M157.2,5.3L157.2,5.3l0.1-0.1v0.1C157.3,5.3,157.1,5.3,157.2,5.3L157.2,5.3z
			 M157.5,3.6C157.5,3.6,157.5,3.7,157.5,3.6L156.1,3l0.2-0.4L157.5,3.6L157.5,3.6L157.5,3.6z M158.5,32.8l-0.1-0.1l0.1-0.2
			C158.5,32.6,158.5,32.7,158.5,32.8L158.5,32.8L158.5,32.8z M159.9,11c-0.1,0-0.1-0.1-0.1-0.1s0-0.1,0.1-0.2l0.2,0.2
			C160,10.9,160,11,159.9,11z M161.7,188v-0.1V188L161.7,188z M163.1,183.2C163.1,183.2,163,183.2,163.1,183.2
			C163,183.2,163,183.1,163.1,183.2C163,183.1,163.1,183.1,163.1,183.2C163.1,183.1,163.1,183.1,163.1,183.2L163.1,183.2z
			 M163.4,188.9C163.4,188.9,163.3,188.9,163.4,188.9c-0.1,0-0.1-0.1-0.1-0.2s0.1,0,0.1,0S163.4,188.7,163.4,188.9L163.4,188.9z
			 M164.6,107L164.6,107L164.6,107L164.6,107z M166.3,7.9c0-0.1-0.1-0.1-0.1-0.2s0.1-0.1,0.1-0.2s0.1,0.1,0.1,0.2
			S166.4,7.8,166.3,7.9L166.3,7.9z M166.6,97.8L166.6,97.8L166.6,97.8L166.6,97.8z M166.8,29.9c0-0.1,0-0.1-0.1-0.2h0.1
			C166.8,29.8,166.9,29.8,166.8,29.9C166.9,29.9,166.8,29.8,166.8,29.9L166.8,29.9z M167.2,8.9c-0.1-0.1-0.1-0.3-0.1-0.4
			c0-0.1,0.1-0.1,0.2-0.2l0.2,0.5L167.2,8.9z M167.9,173.5v-0.1C167.9,173.4,167.9,173.4,167.9,173.5
			C167.9,173.5,167.9,173.4,167.9,173.5L167.9,173.5z M168.2,184.2L168.2,184.2c-0.1,0-0.1-0.1-0.1-0.1S168.2,184.1,168.2,184.2
			C168.3,184.2,168.3,184.1,168.2,184.2L168.2,184.2z M168.6,167.6L168.6,167.6L168.6,167.6L168.6,167.6z M169,116.2
			C169,116.2,169,116.1,169,116.2c0-0.1,0.1-0.1,0.1-0.1s0,0,0,0.1S169,116.1,169,116.2L169,116.2z M169.7,174.3
			c0-0.1-0.1-0.1-0.1-0.2c0,0,0,0,0.1-0.1V174.3L169.7,174.3z M169.7,78.6L169.7,78.6C169.6,78.6,169.6,78.5,169.7,78.6
			C169.6,78.5,169.6,78.5,169.7,78.6C169.7,78.5,169.8,78.5,169.7,78.6L169.7,78.6z M170.1,185.2c-0.1-0.1-0.1-0.2-0.2-0.2l0.2-0.2
			c0.1,0.1,0.1,0.2,0.2,0.3S170.1,185.1,170.1,185.2L170.1,185.2z M171.3,156.2v-0.1l0.2,0.1H171.3z M171.6,34.5L171.6,34.5
			L171.6,34.5L171.6,34.5z M172.9,146.5c-0.1-0.1-0.1-0.2-0.1-0.2l0.1-0.1l0.2,0.2L172.9,146.5z M173.4,131.6
			C173.4,131.6,173.3,131.6,173.4,131.6c-0.1-0.1-0.1-0.1-0.1-0.1h0.1c0,0,0.1,0,0,0V131.6z M175.1,97c-0.1,0-0.2-0.1-0.3-0.1
			c0-0.1,0-0.2,0.1-0.2s0.2,0,0.3,0C175.2,96.8,175.1,97,175.1,97z M176.2,26.9c-0.1,0-0.1-0.1-0.2-0.2c0,0,0.1-0.1,0.1-0.2l0.2,0.3
			C176.4,26.9,176.3,26.9,176.2,26.9L176.2,26.9z M176.6,20.3C176.6,20.3,176.5,20.3,176.6,20.3L176.6,20.3L176.6,20.3L176.6,20.3z
			 M176.9,21.6c0-0.1,0-0.1,0-0.2h0.1C177,21.5,177,21.6,176.9,21.6L176.9,21.6z M177.1,147.2C177.1,147.2,177,147.2,177.1,147.2
			C177,147.2,177,147.2,177.1,147.2C177,147.1,177.1,147.1,177.1,147.2C177.1,147.1,177.1,147.2,177.1,147.2L177.1,147.2z
			 M177.8,21.6C177.8,21.6,177.8,21.5,177.8,21.6C177.8,21.4,177.9,21.5,177.8,21.6C177.9,21.5,177.9,21.5,177.8,21.6
			C177.9,21.6,177.9,21.5,177.8,21.6L177.8,21.6z M178,14.1c-0.1-0.2-0.3-0.4-0.3-0.6c0-0.1,0.2-0.3,0.3-0.5
			c0.1,0.1,0.3,0.3,0.4,0.5C178.3,13.7,178.2,13.9,178,14.1L178,14.1z M179.3,23.1L179.3,23.1L179.3,23.1L179.3,23.1z M180.3,68.5
			c0-0.1,0-0.1,0-0.2h0.1L180.3,68.5L180.3,68.5z M182.8,294.3C182.8,294.3,182.7,294.3,182.8,294.3
			C182.7,294.2,182.7,294.2,182.8,294.3L182.8,294.3C182.8,294.2,182.8,294.2,182.8,294.3L182.8,294.3z M183.2,6.3L183.2,6.3
			C183.2,6.2,183.3,6.2,183.2,6.3C183.3,6.2,183.3,6.2,183.2,6.3C183.3,6.4,183.2,6.3,183.2,6.3L183.2,6.3z M183.8,46.6l-0.2-0.1
			l0.1-0.2C183.8,46.4,183.8,46.4,183.8,46.6C183.8,46.5,183.8,46.6,183.8,46.6L183.8,46.6z M184.5,119.4L184.5,119.4
			C184.4,119.4,184.4,119.3,184.5,119.4L184.5,119.4C184.6,119.3,184.5,119.3,184.5,119.4L184.5,119.4z M185.9,7.2L185.9,7.2
			c0-0.1,0-0.2,0.1-0.2l0.1,0.1C186,7.1,186,7.2,185.9,7.2z M188.1,147c0-0.1-0.1-0.1-0.1-0.2c0-0.1,0.1-0.1,0.1-0.2
			s0.1,0.1,0.1,0.2L188.1,147z M192.8,62.5C192.8,62.4,192.8,62.4,192.8,62.5C192.8,62.4,192.9,62.4,192.8,62.5
			C192.9,62.4,192.9,62.5,192.8,62.5C192.9,62.5,192.9,62.5,192.8,62.5L192.8,62.5z M193.1,95.5C193.1,95.5,193,95.5,193.1,95.5
			C193,95.5,193,95.4,193.1,95.5C193,95.4,193.1,95.4,193.1,95.5C193.1,95.4,193.1,95.4,193.1,95.5z M196.6,125.2
			c0-0.1-0.1-0.2-0.1-0.3l0.2-0.1c0.1,0.1,0.1,0.2,0.1,0.3L196.6,125.2z M197,114.4L197,114.4C197,114.3,197,114.3,197,114.4
			c0.1-0.1,0.1-0.1,0.1,0H197z M198.4,289c-0.1-0.2-0.3-0.3-0.2-0.3c0.1-0.1,0.1-0.2,0.2-0.3c0.1,0.1,0.2,0.1,0.2,0.2
			C198.6,288.7,198.5,288.9,198.4,289z M199.9,30L199.9,30L199.9,30L199.9,30z M199.9,131.8L199.9,131.8L199.9,131.8L199.9,131.8z
			 M201.5,139.6v-0.1h0.1C201.6,139.5,201.6,139.6,201.5,139.6L201.5,139.6L201.5,139.6z M202.2,5.5l-0.6-0.3
			c0.1-0.1,0.1-0.2,0.2-0.2c0.2,0.1,0.4,0.2,0.6,0.3L202.2,5.5z M204,179.7L204,179.7L204,179.7L204,179.7z M205.3,287.4
			c0-0.1-0.1-0.2-0.1-0.3c0-0.1-0.1-0.2-0.1-0.4c0-0.1,0.1-0.2,0.1-0.3c0.1,0.1,0.2,0.2,0.2,0.2c0,0.1,0,0.3,0,0.4L205.3,287.4z
			 M205.5,274C205.5,274,205.5,273.9,205.5,274c0-0.1,0-0.1,0.1-0.1L205.5,274L205.5,274z M206.9,128.5L206.9,128.5
			C206.8,128.4,206.8,128.4,206.9,128.5C206.9,128.4,206.9,128.4,206.9,128.5C206.9,128.4,206.9,128.4,206.9,128.5L206.9,128.5z
			 M208.1,118.6L208.1,118.6C208.1,118.5,208.1,118.5,208.1,118.6C208.3,118.5,208.2,118.6,208.1,118.6
			C208.2,118.6,208.1,118.6,208.1,118.6L208.1,118.6z M209.1,193.3L209.1,193.3C208.9,193.3,209,193.2,209.1,193.3
			C209,193.2,209.1,193.2,209.1,193.3C209.1,193.2,209.2,193.2,209.1,193.3L209.1,193.3z M210.2,8.1c-0.1,0-0.3-0.1-0.4-0.2
			c0.1-0.1,0.1-0.2,0.1-0.2c0.2,0,0.3,0.1,0.4,0.2C210.3,8,210.3,8.1,210.2,8.1z M212.7,137.8L212.7,137.8L212.7,137.8z
			 M215.3,120.1h-0.1V120L215.3,120.1z M215.2,135c0-0.3-0.1-0.5-0.1-0.8c0-0.1,0.1-0.2,0.2-0.2c0.1,0.2,0.1,0.4,0.2,0.6
			C215.5,134.6,215.4,134.7,215.2,135z M215.9,133.1L215.9,133.1L215.9,133.1L215.9,133.1z M217.5,78.3L217.5,78.3
			C217.4,78.2,217.4,78.2,217.5,78.3C217.4,78.2,217.5,78.2,217.5,78.3C217.5,78.2,217.5,78.2,217.5,78.3L217.5,78.3z M217.6,26.9
			L217.6,26.9L217.6,26.9L217.6,26.9z M219.2,78.8L219.2,78.8C219.2,78.7,219.2,78.7,219.2,78.8C219.2,78.7,219.2,78.7,219.2,78.8
			C219.2,78.7,219.2,78.7,219.2,78.8L219.2,78.8z M219.8,89.2L219.8,89.2c-0.1-0.2-0.1-0.1,0-0.2S219.8,89.1,219.8,89.2
			C219.8,89.3,219.9,89.2,219.8,89.2L219.8,89.2z M222,3.1L222,3.1L222,3.1L222,3.1z M222.5,153.1c-0.4,0-0.9-0.7-0.7-1
			c0-0.1,0.1-0.1,0.2-0.1c0.4,0.1,0.7,0.5,0.7,0.9C222.7,153,222.6,153,222.5,153.1L222.5,153.1z M223.9,160
			c-0.5-0.2-0.5-0.6-0.5-0.9s0.2-0.6,0.5-0.5c0.2,0.1,0.4,0.3,0.5,0.6C224.5,159.6,224.3,159.9,223.9,160L223.9,160z M225.4,151.5
			l-0.1-0.1l0.1-0.1V151.5C225.5,151.4,225.5,151.5,225.4,151.5L225.4,151.5z M225.4,105.7L225.4,105.7c-0.1-0.1-0.1-0.1,0-0.2
			V105.7C225.5,105.7,225.5,105.7,225.4,105.7L225.4,105.7z M226.1,158.2L226.1,158.2V158h0.1L226.1,158.2z M226.3,52l-0.1-0.2
			c0.1,0,0.1,0,0.2,0v0.1C226.4,51.9,226.3,52,226.3,52z M226.5,165.4c-0.1-0.1-0.2-0.2-0.2-0.4c0.1-0.2,0.2-0.4,0.3-0.6
			c0.1,0.3,0.3,0.5,0.2,0.6S226.6,165.2,226.5,165.4L226.5,165.4z M227,158.6c0-0.1-0.1-0.2,0-0.2c0.1-0.1,0.1-0.1,0.2-0.1
			c0,0.1,0,0.1,0.1,0.2L227,158.6z M227.3,87.5h0.2v0.2h-0.1C227.3,87.7,227.3,87.6,227.3,87.5L227.3,87.5z M227.5,263.8l-0.2-0.1
			v-0.1L227.5,263.8L227.5,263.8z M227.5,260.1V260V260.1L227.5,260.1z M227.6,161.5c0-0.1-0.1-0.2-0.1-0.3s0.1-0.2,0.1-0.3l0.3,0.2
			L227.6,161.5z M229.8,169.8c-0.1-0.1-0.1-0.2-0.1-0.3c-0.1-0.3-0.1-0.6-0.2-0.8c0-0.1,0.1-0.2,0.1-0.3c0.1,0.1,0.1,0.1,0.1,0.2
			c0.1,0.3,0.1,0.6,0.1,0.8S229.7,169.7,229.8,169.8L229.8,169.8z M231.2,122.3L231.2,122.3h0.2
			C231.4,122.3,231.3,122.3,231.2,122.3L231.2,122.3z M231.4,289.4L231.4,289.4l0.1-0.2c0,0,0,0,0.1,0.1L231.4,289.4z M231.8,95.4
			L231.8,95.4L231.8,95.4C231.8,95.2,231.8,95.3,231.8,95.4C231.9,95.3,231.8,95.4,231.8,95.4L231.8,95.4z M232.1,260.8L232.1,260.8
			L232.1,260.8L232.1,260.8z M232.3,119.5l-0.1-0.2l0.2-0.1l0.1,0.1C232.4,119.4,232.3,119.5,232.3,119.5L232.3,119.5z M233.3,90.4
			L233.3,90.4L233.3,90.4L233.3,90.4z M233.5,269.7c-0.1-0.1-0.1-0.2-0.1-0.3l0.1-0.1l0.2,0.3L233.5,269.7z M234.7,224.3
			L234.7,224.3l0.1-0.1L234.7,224.3z M234.9,266.7c0-0.1,0-0.1,0-0.2h0.1C235,266.5,235,266.6,234.9,266.7
			C235,266.7,234.9,266.7,234.9,266.7L234.9,266.7z M237,214C237,214,236.9,214,237,214c-0.1-0.1-0.1-0.1-0.1-0.1h0.1V214z
			 M237.8,221.5c-0.1,0-0.1,0-0.2,0l0.1-0.2C237.7,221.4,237.7,221.4,237.8,221.5C237.8,221.4,237.7,221.5,237.8,221.5L237.8,221.5z
			 M240,210.1L240,210.1L240,210.1L240,210.1z M240.5,286c0-0.1,0-0.1-0.1-0.2c0,0,0,0,0.1-0.1S240.5,285.8,240.5,286
			C240.6,286,240.5,285.9,240.5,286L240.5,286z M241.2,108.8L241.2,108.8C241,108.8,241.1,108.7,241.2,108.8
			C241.1,108.7,241.1,108.7,241.2,108.8C241.2,108.7,241.2,108.8,241.2,108.8z M241.3,32.4l-0.2-0.4c0.1-0.2,0.1-0.3,0.1-0.5
			c0,0.1,0.1,0.2,0.1,0.3C241.4,32.1,241.3,32.2,241.3,32.4L241.3,32.4z M241.9,210.9l-0.1-0.1c0,0,0-0.1,0.1-0.1V210.9L241.9,210.9
			z M243.3,6.2c-0.1-0.2-0.3-0.4-0.4-0.6V5.5h0.1l0.5,0.5L243.3,6.2z M243.9,216.5L243.9,216.5L243.9,216.5
			C244,216.5,244,216.5,243.9,216.5L243.9,216.5z M244,8.2C244,8.2,243.9,8.2,244,8.2c0-0.1,0-0.2,0-0.2l0.1,0.1L244,8.2z
			 M244.7,262.9L244.7,262.9c0-0.1,0-0.2,0-0.2l0.1,0.1L244.7,262.9z M245.2,286.2c-0.1-0.2-0.2-0.3-0.2-0.5c0-0.1,0.1-0.2,0.1-0.3
			l0.3,0.4L245.2,286.2z M245.3,216.8c-0.1-0.1-0.1-0.2-0.1-0.3l0.1-0.1l0.2,0.2L245.3,216.8z M245.1,117L245.1,117L245.1,117
			L245.1,117z M245.5,6.5c0,0.1-0.1,0.1-0.2,0.1c-0.1,0-0.1,0-0.2-0.1c0-0.1-0.1-0.2-0.1-0.3c0-0.3,0-0.6,0-0.9l0.5,0.7
			C245.5,6.2,245.5,6.3,245.5,6.5L245.5,6.5z M253.1,267C253.1,267,253.1,267.1,253.1,267c0,0.1-0.1,0.2-0.1,0.2v-0.1L253.1,267z"/>
		<path class="st1" d="M1,33.1L1,33.1z"/>
		<path class="st1" d="M16.7,294L16.7,294L16.7,294z"/>
		<circle class="st1" cx="216.9" cy="188.5" r="6.4"/>
		<circle class="st1" cx="216.9" cy="116.8" r="6.4"/>
		<circle class="st1" cx="216.9" cy="260.3" r="6.4"/>
		<circle class="st1" cx="216.9" cy="45" r="6.4"/>
		<circle class="st1" cx="37.9" cy="188.5" r="6.4"/>
		<circle class="st1" cx="37.9" cy="116.8" r="6.4"/>
		<circle class="st1" cx="37.9" cy="260.3" r="6.4"/>
		<circle class="st1" cx="37.9" cy="45" r="6.4"/>
	</g>
</g>
</svg>
