<?xml version="1.0" encoding="utf-8"?>
<!-- Generator: Adobe Illustrator 24.1.0, SVG Export Plug-In . SVG Version: 6.00 Build 0)  -->
<svg version="1.1" id="Layer_1" xmlns="http://www.w3.org/2000/svg" xmlns:xlink="http://www.w3.org/1999/xlink" x="0px" y="0px"
	 viewBox="0 0 140.5 226" style="enable-background:new 0 0 140.5 226;" xml:space="preserve">
<style type="text/css">
	.st0{fill:#F8F1E6;}
	.st1{fill:#006E68;}
</style>
<rect x="30.1" y="41.8" class="st0" width="86.6" height="141.9"/>
<path class="st1" d="M70.3,0L70.3,0C31.4,0,0,31.4,0,70.2v85.5C0,194.6,31.4,226,70.2,226l0,0c38.8,0,70.2-31.4,70.2-70.2V70.2
	C140.5,31.4,109,0,70.3,0z M104.6,114.9l-56.5,56.4c-0.6,0.6-1.4,0.9-2.1,0.9c-0.8,0-1.5-0.3-2.1-0.9c-1.2-1.2-1.2-3.1,0-4.2
	l54.3-54.3L44.3,58.9c-1.2-1.2-1.2-3.1,0-4.2c1.2-1.2,3.1-1.2,4.2,0l56.1,56.1c0.6,0.6,0.9,1.3,0.9,2.1
	C105.5,113.6,105.2,114.4,104.6,114.9z"/>
</svg>
